<?xml version="1.0" encoding="utf-8"?>
<!-- Generator: Adobe Illustrator 22.0.1, SVG Export Plug-In . SVG Version: 6.00 Build 0)  -->
<svg version="1.1" id="Calque_1" xmlns="http://www.w3.org/2000/svg" xmlns:xlink="http://www.w3.org/1999/xlink" x="0px" y="0px"
	 viewBox="0 0 771.5 371.2" style="enable-background:new 0 0 771.5 371.2;" xml:space="preserve">
<style type="text/css">
	.st0{fill:#003B71;}
	.st1{fill-rule:evenodd;clip-rule:evenodd;fill:#003B71;}
</style>
<rect x="273.9" y="60.9" class="st0" width="0.5" height="226.1"/>
<path class="st0" d="M175.8,118.4c-7.3,8.6-16.7,19.8-25.2,30.2c-32.7-40.5-63.2-72.9-83.3-88c10.5,24.1,36.4,61.4,70.4,104.6
	c-17.6,22.8-52.6,68.2-70.4,106.7c24.3-19.1,56.9-57,83.4-90.5c32.6,40.5,63.7,75.2,83.8,90.2c-10.5-24-37.1-63.7-70.8-106.8
	c13.2-17,18-23,31.1-41.4c14.1-19.9,37-48.5,49.2-42.5C225.6,70.6,199.5,90.5,175.8,118.4"/>
<path class="st0" d="M110.3,153.6c-0.4-0.3-0.9-0.4-1.4-0.4c-0.7,0-1.5,0.2-2.4,0.7c-0.9,0.5-1.8,1.2-2.8,2.1
	c-1,0.9-1.9,1.9-2.9,3.2c-1,1.2-1.9,2.5-2.9,4c-0.9,1.4-1.8,2.9-2.6,4.5c-0.8,1.6-1.5,3.2-2.1,4.8c-0.6,1.6-1.1,3.2-1.4,4.8
	c-0.3,1.2-0.4,2.3-0.5,3.3c-0.9,0.9-1.8,1.6-2.5,2.2c-1,0.8-1.8,1.6-2.5,2.1c-0.8,0.6-1.2,0.9-1.8,1.2l0.4,1.3
	c0.6-0.3,1.4-0.9,2.2-1.5c0.7-0.6,1.6-1.3,2.6-2.1c0.5-0.4,1.1-0.9,1.7-1.5c0,0.9,0.2,1.8,0.4,2.5c0.3,0.8,0.7,1.5,1.1,2.1
	c0.5,0.5,1,0.9,1.6,1.2c0.6,0.2,1.2,0.4,1.9,0.4c0.8,0,1.6-0.2,2.3-0.6c0.8-0.4,1.5-0.9,2.2-1.5c0.6-0.5,1.1-1.1,1.6-1.7l-0.8-0.9
	c-0.1,0.1-0.2,0.3-0.4,0.4c-0.5,0.6-1.1,1.1-1.6,1.5c-0.5,0.4-1.1,0.8-1.7,1.1c-0.6,0.3-1.1,0.4-1.7,0.4c-0.8,0-1.5-0.3-1.9-1
	c-0.4-0.7-0.7-1.7-0.8-3.1c0-0.5,0-1,0-1.5c0-0.6,0.1-1.1,0.2-1.6c0.4-0.4,0.8-0.9,1.3-1.3c0.2-0.2,0.3-0.3,0.5-0.5
	c0.3-0.3,0.7-0.7,1.1-1.1c0.4-0.4,0.9-1,1.6-1.7c0.6-0.7,1.3-1.5,2.2-2.5c0.8-1,1.9-2.2,3-3.6c0.6-0.7,1.2-1.5,1.8-2.3
	c0.6-0.8,1.2-1.7,1.7-2.6c0.5-0.9,1-1.8,1.5-2.7c0.5-0.9,0.9-1.8,1.2-2.6c0.3-0.8,0.6-1.6,0.8-2.3c0.2-0.7,0.3-1.3,0.3-1.8
	C110.9,154.3,110.7,153.8,110.3,153.6 M109,157.8c-0.4,1-0.9,2.1-1.6,3.3c-0.7,1.2-1.5,2.5-2.4,3.8c-0.9,1.3-2,2.7-3.1,4.2
	c-1.1,1.4-2.3,2.9-3.6,4.3c-1.3,1.5-2.6,2.9-4,4.3l0,0l0,0c0.3-1.7,0.9-3.5,1.6-5.4c0.7-1.8,1.5-3.6,2.4-5.3
	c0.9-1.7,1.9-3.3,2.9-4.9c1-1.5,2-2.8,3-4c1-1.1,1.8-2,2.7-2.7c0.8-0.7,1.5-1,2-1c0.2,0,0.4,0.1,0.5,0.3c0.1,0.2,0.1,0.4,0.1,0.6
	C109.6,156,109.4,156.8,109,157.8 M119.5,157.7c0,0.5-0.1,1.2-0.4,1.7c-0.3,0.5-0.7,1-1.2,1.5c-0.5,0.5-1,0.9-1.6,1.3
	c-0.6,0.4-1.2,0.7-1.8,0.9l-0.5-0.8c0.7-0.3,1.3-0.8,1.9-1.2c0.6-0.5,1-0.9,1.3-1.4c-0.6-0.1-1-0.4-1.2-0.7
	c-0.2-0.4-0.4-0.7-0.4-1.1c0-0.5,0.2-1,0.6-1.3c0.4-0.4,0.8-0.5,1.3-0.5c0.5,0,1,0.2,1.3,0.6C119.3,156.8,119.5,157.2,119.5,157.7"
	/>
<path class="st0" d="M124.6,257.6h6.9v1.2h-5.5v4.3h5.5v1.2h-5.5v4.4h5.5v1.2h-6.9V257.6z M129.8,253.8l0.5,0.9l-4,2.2l-0.4-0.8
	L129.8,253.8z M145.5,266.7c-0.8,1.9-3,3.6-5.7,3.6c-3.7,0-6.5-2.8-6.5-6.4c0-3.5,2.7-6.4,6.4-6.4c3.1,0,5,2,5.7,3.6H144
	c-0.4-0.7-1.8-2.4-4.2-2.4c-2.9,0-5.1,2.3-5.1,5.2c0,2.9,2.2,5.2,5.1,5.2c2.6,0,3.9-1.9,4.2-2.3H145.5z M146.7,263.9
	c0-3.8,3-6.5,6.5-6.5c3.6,0,6.5,2.8,6.5,6.4c0,3.6-2.8,6.4-6.5,6.4C149.5,270.3,146.7,267.4,146.7,263.9L146.7,263.9z M148.1,263.8
	c0,2.9,2.2,5.2,5.1,5.2c2.9,0,5.1-2.4,5.1-5.2c0-2.8-2.1-5.2-5.1-5.2C150.3,258.6,148.1,261,148.1,263.8L148.1,263.8z M162,257.6
	h1.4v11.2h5.3v1.2H162V257.6z M170.4,257.6h6.9v1.2h-5.5v4.3h5.5v1.2h-5.5v4.4h5.5v1.2h-6.9V257.6z"/>
<path class="st0" d="M82.4,274.8c2.1,0,2.9,0.3,3.6,0.9c0.9,0.7,1.4,1.9,1.4,3.2c0,1.2-0.5,2.5-1.3,3.1c-0.8,0.7-1.7,1-3.5,1h-1.5
	v4.3h-2.5v-12.4H82.4z M81.2,280.7h1.5c0.6,0,1.1,0,1.6-0.3c0.5-0.2,0.8-0.8,0.8-1.6c0-0.8-0.4-1.3-0.9-1.5
	c-0.5-0.3-1.1-0.3-1.7-0.3h-1.4V280.7z M88.8,281.1c0-4,3-6.5,6.5-6.5c3.7,0,6.5,2.9,6.5,6.4c0,3.5-2.7,6.4-6.5,6.4
	C91.5,287.4,88.8,284.4,88.8,281.1L88.8,281.1z M91.3,281c0,2.3,1.6,4.2,4,4.2c2.5,0,4-2.2,4-4.2c0-2.1-1.5-4.3-4-4.3
	C92.9,276.7,91.3,278.8,91.3,281L91.3,281z M104.2,274.8h2.5V285h4.1v2.2h-6.6V274.8z M114.8,282.7l-3.8-8h2.7l2.3,5.6l2.4-5.6h2.7
	l-3.8,8v4.4h-2.5V282.7z M125.2,276.9h-2.7v-2.2h7.8v2.2h-2.7v10.2h-2.5V276.9z M133,274.8h6.9v2.2h-4.5v2.8h4.4v2.2h-4.4v3h4.5v2.2
	H133V274.8z M154.5,283c-0.8,2.6-3.2,4.4-6.1,4.4c-3.8,0-6.5-3-6.5-6.4c0-3.3,2.6-6.4,6.5-6.4c3.6,0,5.6,2.6,6.1,4.5h-2.6
	c-0.4-0.9-1.5-2.2-3.5-2.3c-2.4,0-4,2-4,4.2c0,2.3,1.6,4.3,4,4.3c2.2,0,3.2-1.7,3.4-2.2H154.5z M156.5,287.1v-12.4h2.5v5h4.8v-5h2.5
	v12.4h-2.5v-5.2H159v5.2H156.5z M177.7,283.3l0-8.6h2.4v12.4h-2.2l-5.7-8.6l0,8.6h-2.4v-12.4h2.2L177.7,283.3z M183.6,274.8h2.5
	v12.4h-2.5V274.8z M206.8,274.8v7.6c0,0.6,0,1.3,0.4,1.9c0.3,0.5,0.9,0.9,1.7,0.9c0.8,0,1.4-0.4,1.7-0.9c0.4-0.6,0.4-1.3,0.4-1.9
	v-7.6h2.5v7.6c0,1.8-0.4,2.9-1.3,3.8c-0.8,0.7-1.8,1.2-3.2,1.2c-0.9,0-2.3-0.2-3.2-1.2c-1.1-1.1-1.3-2.2-1.3-3.8v-7.6H206.8z
	 M216.2,274.8h6.9v2.2h-4.5v2.8h4.4v2.2h-4.4v3h4.5v2.2h-6.9V274.8z M201.5,285.3c-0.2,0-0.8-0.1-1.2-0.4c0.9-1.1,1.3-2.5,1.3-4
	c0-3.5-2.8-6.4-6.5-6.4c-3.4,0-6.5,2.6-6.5,6.5v0c0,2.3,1.3,4.5,3.4,5.6l0,0c0.1,0.1,0.3,0.1,0.4,0.2c0.8,0.4,1.7,0.6,2.7,0.6
	c1.1,0,2.2-0.3,3.1-0.8c0.1-0.1,0.3-0.1,0.4-0.2c0.6,0.4,1.5,1,2.9,1h0.3v-2.1H201.5z M191.1,281L191.1,281c0-2.2,1.5-4.2,4-4.2
	c2.5,0,4,2.2,4,4.3c0,0.8-0.2,1.6-0.6,2.3l-1.3-1.3l-1.5,1.5l1.3,1.3c-0.5,0.3-1.1,0.4-1.8,0.4C192.7,285.2,191.1,283.2,191.1,281"
	/>
<path class="st1" d="M160.3,79.9c0.1,0,1.2-1.3,1.3-1.5c0.1-0.2,0.9-0.9,1-0.8c0,0.1-0.2,0.4-0.2,0.5c0,0.1-0.6,1.2-0.9,1.4
	c-0.2,0.2-0.6,0.4-0.6,0.4c0,0.1,0.1,0,0.1,0.1c0,0.1-0.2,0.2-0.4,0.3c0,0-0.3,0-0.3,0C160.3,80.1,160.3,79.9,160.3,79.9 M159,84.8
	c0-0.1,0.1-0.2,0.2-0.3c0.1-0.1,0.1-0.3,0.2-0.3c0,0,2.3-1.3,2.7-1.5c0.1,0,0.1-0.1,0.2-0.2c-0.1,0-1.4,0.6-1.6,0.7
	c-0.2,0.1-1.2,0.5-1.3,0.3c0-0.2,0.3-0.6,0.4-0.6c0.1-0.1,1.8-0.4,3.1-1.1c0.1-0.1,0.2-0.1,0.4,0C163.4,82,161.6,83.8,159,84.8
	 M156.5,85.3c-0.2,0-0.6-0.1-0.6-0.3c0-0.1,2.3-1,2.6-1.3c-0.2,0-2.1,0.7-2.1,0.5c0-0.2,0-0.4,0.1-0.4c1-0.1,2.9-1,3-0.9
	C159.4,83.1,157.4,85.1,156.5,85.3 M158.8,76.5c-0.1,0.3-0.1,0.6-0.4,0.7c-0.1,0-0.2,0-0.3,0c-0.1,0-0.3,0-0.5,0c-0.1,0-0.3,0-0.3,0
	c-0.1,0-0.3,0-0.3-0.1c0,0,0-0.1,0-0.2c0-0.2,0.1-0.5,0.1-0.7C157.3,76.1,158.7,76.4,158.8,76.5 M158.9,81.4c0,0.1,0.1,0.1,0.1,0.2
	c-0.2-0.1-0.2-0.4-0.3-0.6c0,0,0,0,0.1,0C158.9,81,158.9,81.2,158.9,81.4 M158.4,78.4c-0.2,0-1.3-0.2-1.3-0.2s-0.2-1,0.3-0.9
	c0.1,0,1.1,0,1.2,0.2C158.6,77.7,158.5,78.3,158.4,78.4 M158.4,78.7c0,0.1,0,0.6,0,0.7c0,0-1,0-1,0c-0.4,0.1-0.3-0.5-0.3-0.8
	C157.1,78.6,158.3,78.6,158.4,78.7 M157.5,80.6c-0.5,0.1-0.4-0.6-0.4-0.9c0,0,1.1-0.1,1.2,0c0.1,0.1,0.3,1,0,1
	C158.1,80.6,157.5,80.6,157.5,80.6 M158.3,80.9c0.3,0,0.2,0.5,0.3,0.6c-0.1-0.1-1,0-1,0c-0.1,0-0.1,0-0.2,0c0-0.1-0.1-0.2-0.1-0.3
	c0-0.1,0-0.3,0.1-0.3C157.7,80.8,158,80.9,158.3,80.9 M156.4,81.7c0.2,0,0.3,0,0.3,0.1c-0.1,0.1-0.2,0.1-0.4,0.1c-0.1,0-0.2,0-0.4,0
	c-0.1,0-0.5,0-0.5-0.1c0-0.1,0.2-0.2,0.2-0.2C155.9,81.6,156.2,81.7,156.4,81.7 M156.3,82.2c0.2,0,0.3,0,0.3,0.1
	c0,0.1-0.5,0.1-0.6,0.1c-0.1,0-1.2,0-1.2-0.1c0-0.1,0.3-0.3,0.4-0.3C155.5,82,156,82.2,156.3,82.2 M162.3,79.3c0,0,0-0.1,0-0.1
	c0.1-0.2,0.2-0.4,0.2-0.5c0-0.1,0.2-0.6,0.3-0.7c0.2-0.1,1.8-1.5,1.8-1.7c-0.1,0-1.3,1.2-1.6,1.1c0-0.1,0.6-1.2,0.8-1.4
	c0.1-0.1,0.2-0.2,0.4-0.2c0.1,0.1,0,0.2,0,0.3c0.5-0.2,0.4-1,0.8-1c0.1,0,0.1,0.2,0.1,0.2c0.1-0.2,0.2-0.5,0.3-0.7
	c0.1-0.1,0.3-0.2,0.4-0.1c0.1,0-0.2,0.5-0.2,0.7c-0.2,0.4-0.3,1-0.5,1.4C165,76.8,162.5,79.2,162.3,79.3 M160.2,80.8L160.2,80.8
	c0,0,0.5-0.2,0.6-0.2c0.1-0.1,0.2-0.3,0.3-0.3c0.1,0.2-0.9,1.6-1.3,1.9c-0.8,0.5-2.8,1.3-2.8,1.3c-0.3,0.1-0.4,0.1-0.4-0.2
	c0-0.1,0-0.2,0.1-0.2c0,0,1.8-0.6,2.2-0.9c0,0-1.8,0.4-1.9,0.3c0-0.2,0.1-0.5,0.3-0.5c0,0,1.1,0,1.4,0c0,0,1.1,0.1,1.3-0.2
	C160.2,81.5,160.2,80.9,160.2,80.8 M159.2,81.6c0-0.1,0.1-0.3,0.2-0.4c0.1-0.1,0.2-0.3,0.3-0.4c0,0,0.1,0,0.1,0
	c-0.1,0.3-0.3,0.5-0.5,0.7C159.4,81.5,159.3,81.6,159.2,81.6 M159.7,77.8c0,0.2-0.5,0.8-0.6,0.9c0,0.1,0,0.3,0,0.3
	c0.1,0,0.1-0.1,0.2-0.2c0-0.1,0.4-0.6,0.4-0.5c0.2,0.1-0.6,0.9-0.6,1.1c0,0.1,0,0.3,0.1,0.3c0.1,0,0.6-0.8,0.7-0.7c0,0,0,0,0,0
	c0,0.1-0.7,1-0.7,1.1c0,0.1,0,0.3,0.1,0.3c0.1,0,0.5-0.6,0.6-0.7c0.1,0.1,0,0.2,0,0.3c-0.1,0.2-0.6,0.8-0.5,1
	c-0.1,0-0.1-0.1-0.2-0.1c0-0.1-0.1-0.6-0.1-0.7c0,0-0.1-1.2-0.1-1.4c0-0.1,0-0.4,0-0.6c0.1,0,0.5-0.5,0.6-0.6
	C159.6,77.7,159.7,77.7,159.7,77.8 M159.6,77.3c-0.1,0.2-0.6,0.8-0.7,0.8c0-0.2,0.1-0.5,0.1-0.5c0,0,0.3-0.4,0.5-0.5
	C159.6,77.1,159.6,77.2,159.6,77.3 M159.3,76.7c0.2,0,0,0.3-0.1,0.4c-0.1,0.1-0.2,0.2-0.2,0.1C158.9,77.1,159.1,76.9,159.3,76.7
	 M159.9,70.3c0.1,0,1.4,1,2,1.5c0,0.1,0,0.1-0.1,0.2c-0.1,0-0.2-0.1-0.3-0.2c-0.6-0.4-1.7-1.2-1.7-1.3
	C159.7,70.3,159.8,70.3,159.9,70.3 M161.5,72.1c0.5,0.3,0.3,0.6,0.2,0.7c-0.1,0-0.2-0.2-0.3-0.2c-0.2-0.1-0.3-0.2-0.4-0.3
	c0.2,0.3,0.3,0.5,0.6,0.7c0,0.2-0.8,0.9-0.9,1c-0.1,0.1-0.1,0.1-0.3,0.1c-0.1,0-1.9-1.3-2-1.3c-0.1,0-0.3-0.2-0.3-0.3
	c0-0.1,0.3-0.8,0.4-1c0.1-0.2,0.5-0.9,0.7-0.9c0.2,0,0.4,0.2,0.5,0.3C159.9,70.9,161.5,72.1,161.5,72.1 M157.7,72.7
	c0-0.1,0.1-0.1,0.3-0.1c0.2,0.1,0.5,0.3,0.7,0.4c0.4,0.3,1.4,1,1.6,1.1c0.1,0.1,0.4,0.2,0.2,0.4c-0.2-0.2-0.7-0.4-0.8-0.5
	c0,0.1,0.2,0.2,0.3,0.3c0.1,0.1,0.3,0.2,0.3,0.3c-0.1,0-0.3-0.1-0.4-0.2c-0.6-0.5-1.1-0.8-1.7-1.2C158,73.2,157.6,73,157.7,72.7
	 M160,74.8c0,0.1-0.1,0.2-0.1,0.3c-0.1-0.1-0.3-0.3-0.4-0.4c-0.1-0.1-0.2-0.1-0.3,0c0,0.1,0.1,0.2,0.2,0.3c0.1,0.1,0.2,0.2,0.4,0.2
	c-0.2,0.4-0.5,0.7-0.7,1.1c-0.1,0-2.5-0.8-2.6-0.9c0-0.1,0-0.2,0-0.3c0-0.1,0.4-0.7,0.6-0.9c0.1-0.2,0.6-1,0.7-1
	c0.1,0,0.2,0.1,0.3,0.1C158.4,73.7,159.8,74.7,160,74.8 M151.7,77c0.2,0,0.8-0.1,0.9,0c0,0.1-0.2,0.1-0.3,0.1S151.8,77.1,151.7,77
	L151.7,77z M149,77.1c0.2,0,0.8-0.1,0.9,0c0,0.1-0.2,0.1-0.3,0.1C149.4,77.2,149,77.2,149,77.1L149,77.1z M151.9,77.6
	c0.1,0,0.5-0.1,0.6,0.1c-0.1,0.1-0.4,0.1-0.5,0.1c-0.1,0-0.3,0-0.3-0.1C151.7,77.5,151.8,77.6,151.9,77.6 M152.2,78.1L152.2,78.1
	c-0.1,0.1-0.3,0.1-0.4,0.1C151.7,78,152,78,152.2,78.1 M154.6,74.2c-0.2,0-1-0.5-1.4-0.8c-0.3-0.2-0.5-0.5-0.7-0.8
	c-0.2-0.3-0.6-0.8-0.6-0.9c0-0.1,0.1-0.1,0.1-0.1c0.1,0.1,0.2,0.3,0.3,0.4c0.5,0.7,1.1,1.4,1.9,1.8c0.2,0.1,0.5,0.2,0.8,0.3
	c0.1,0,0.2,0,0.2,0.1C155,74.4,154.8,74.3,154.6,74.2 M153.8,73.3c0.3,0,0.8,0,1.1,0.1c0,0.1,0.1,0.2,0.1,0.2
	c-0.2,0.1-0.4,0.1-0.6,0c-0.2,0-0.3-0.1-0.4-0.2C153.9,73.5,153.8,73.4,153.8,73.3 M153.1,70.8c-0.4,0-0.7,0-0.8,0
	c-0.1,0-0.1-0.2-0.1-0.3c0-0.1-0.2-0.8-1-0.7c-0.4,0-0.8,0.3-1,0.6c-0.1,0-1-0.1-1.7-0.4c-0.7-0.3-1.4-0.7-1.6-0.9
	c-0.5-0.4-0.4-0.3-0.4-0.5c0-0.2,1.2-2.7,3.8-2.7c0.6,0,1.4,0.1,1.6,0.3c0,0.1-0.7,0-0.9,0v0.1c0.2,0,1.3,0.1,1.6,0.2
	c0.1,0,0.2,0.1,0.2,0.2c0,0.1-0.7,0-0.9,0c-0.1,0-0.2,0-0.1,0.1c0.5,0.2,1.5,0,1.6,0.4c0,0.1-0.3,0.1-0.4,0.1c0,0,0,0.1,0,0.1
	c0.3,0.1,0.9,0.1,0.8,0.4c0,0.1-0.5-0.1-0.5,0.1c0,0.1,0.5,0.1,0.7,0.1c0.1,0,0.2,0.2,0.2,0.3c0,0.1-0.7,0-0.8,0c0,0,0,0.1,0,0.1
	s1.1,0.1,1.1,0.4c-0.1,0.1-1.1,0-1.4,0c0,0,0,0,0,0.1c0.3,0,0.8,0.1,1.1,0.1c0.1,0,0.3,0.1,0.3,0.1c0,0,0.2,0.2,0.1,0.3
	c-0.1,0.1-0.6,0-0.9,0c0,0.1,0,0.1-0.1,0.1c0.1,0,1,0.1,1.1,0.2c0,0.1,0,0.2,0,0.2c-0.1,0.1-0.9-0.1-1.1-0.1c-0.1,0-0.2,0-0.2,0.1
	c0.2,0.1,1.2,0.2,1.3,0.2c0.1,0.1,0.1,0.3,0,0.3c-0.3,0-0.6-0.1-0.9-0.1c0,0,0,0.1-0.1,0.1c0.2,0.1,0.8,0,1,0.2c0.1,0,0.1,0.2,0,0.2
	c-0.2,0-0.6,0-1.1,0V71c0.4,0,1.2,0.1,1.2,0.2c0,0.1-0.1,0.1-0.2,0.1c-0.3,0-1.2,0-1.2,0s0,0.1,0,0.1c0.2,0,1.3,0.1,1.3,0.2
	c0,0.1,0,0.2-0.1,0.3c-0.3,0-0.6,0-0.9,0c0,0,0,0.1,0,0.1c0.3,0,0.6,0,0.9,0.1v0.3c-0.2,0-0.5,0-0.7,0c0,0,0,0.1,0,0.1
	s0.5,0,0.8,0.1c0,0.1,0,0.2,0,0.3c-0.4,0-0.7-0.1-1.1-0.1v0.1c0.4,0.1,0.7,0.1,1.1,0.1c0,0.1,0.1,0.1,0.1,0.2c-0.2,0.1-1.1,0-1.3,0
	c-0.1,0-0.7-0.6-0.7-0.8c0-0.1,0.1,0,0.2-0.1v-0.1c-0.1-0.1-0.2,0-0.4-0.1c-0.1,0-0.2-0.2-0.2-0.3c0-0.1,0.3,0,0.4-0.1
	c0-0.1-0.5-0.1-0.7-0.2c0,0-0.1-0.1-0.1-0.2c0-0.2,0.5,0,0.7,0c0,0,0-0.1,0-0.1c-0.2,0-0.5,0-0.6-0.1c0-0.1,0-0.3,0.1-0.3
	c0.1,0,0.4,0,0.8,0L153.1,70.8z M145.9,68.9c0-0.1,0.1-0.3,0.2-0.3c0.1,0,0.1,0.1,0.1,0.1c0.6,0.8,1.5,1.1,1.6,1.2
	c0,0.1-0.1,0-0.1,0c0,0,0,0.1,0,0.1c0,0,0.5,0.1,0.7,0.1c0.2,0,0.8,0.2,1.2,0.3v0c-0.1,0.1-0.5,0-0.6,0v0.1c0.3,0,0.8,0,1,0
	c0,0,0.1,0,0.1,0.1c0,0.2-1,0.5-2.2,0.4c-0.8,0-1.3-0.1-2.1-0.3C145.1,70.7,145.9,69,145.9,68.9 M145.7,71.1
	c0.8,0.1,1.6,0.3,2.5,0.3c0.6,0,1.2,0,1.8-0.1c0.1,0,0.2,0,0.3,0.1c0,0.2-0.7,0.2-0.7,0.2c0,0,0,0.1,0,0.1c0.3,0,0.5,0,0.8-0.1
	c-0.1,0.1-0.2,0.2-0.4,0.3c-0.1,0.1-0.6,0.4-1,0.5c-0.6,0.3-2.2,0.5-2.7,0.6c-0.5,0-1,0.1-1.4,0C144.7,73.1,145.4,71.5,145.7,71.1
	 M145.7,73.6c-0.3,0-0.7,0-1.1-0.1c0-0.2,0.2-0.1,0.3-0.1c1.4,0.1,2.7-0.1,3.9-0.5c0.5-0.2,1.2-0.6,1.7-0.9c0,0,0.1,0,0.1,0
	c0,0.2-0.6,0.5-0.9,0.7C148.9,73.1,147,73.6,145.7,73.6 M149.4,77.6c0.1,0,0.4-0.1,0.4,0C149.8,77.8,149.5,77.8,149.4,77.6
	L149.4,77.6z M142.2,83.9c-0.2-0.2-0.6-0.6-0.6-0.8c0.1-0.1,0.2,0,0.4,0.1c0.2,0.1,0.5,0.3,1,0.5c0.5,0.2,1.5,0.2,1.6,0.3
	c0.1,0.1,0.1,0.2,0.1,0.4c0,0.1-0.2,0.1-0.5,0.1c-0.2,0-1.6-0.6-1.7-0.6c0.3,0.3,0.7,0.6,1,0.7c0.3,0.2,1,0.4,1.2,0.4
	c0.2,0,0.4,0.1,0.3,0.3c0,0.1-0.3,0.2-0.5,0.2C143.5,85.2,142.2,84,142.2,83.9 M137.6,81.8c0.1-0.1,0.3,0,0.4,0
	c0.1,0,0.5,0.2,0.6,0.2c0.1,0,2.6,0.9,2.8,1.1c0.1,0.1,0.3,0.4,0.1,0.4c-0.3,0.1-2.7-1-2.7-1.1c0.1,0.2,0.4,0.3,0.7,0.4
	c0.3,0.2,2.2,1.3,2.3,1.3c0.1,0.1,0.1,0.2,0.2,0.3c0.1,0.1,0.2,0.2,0.2,0.3C141.2,84.9,137.6,82.5,137.6,81.8 M140.6,80.2
	c0,0.3-0.4,0.1-0.6-0.1c-0.2-0.2-0.3-0.2-0.5-0.5c-0.2-0.3-0.8-1.2-0.9-1.4c0-0.1-0.2-0.4-0.2-0.5c0-0.3,0.8,0.6,1,0.8
	c0.2,0.3,0.7,0.7,0.9,1.1C140.5,79.9,140.6,80.1,140.6,80.2 M140.8,81.8c-0.1,0-0.6-0.5-0.7-0.7c-0.1-0.2-0.3-0.4-0.3-0.6
	c0,0,0,0,0,0c0.2,0,0.7,0.5,0.7,0.5c0.1,0.1,0.1,0.2,0.1,0.4C140.7,81.5,140.9,81.6,140.8,81.8 M143.7,76.3c0.3,0.1,0.2,0.8,0.2,1
	c0,0.2-1.2,0.3-1.4,0.2s-0.3-0.5-0.2-0.8C142.4,76.4,143.5,76.2,143.7,76.3 M143.9,78.3c0,0.2-1.3,0.3-1.4,0c-0.1-0.2,0-0.6,0-0.7
	c0-0.1,1.3-0.2,1.4,0C144,77.8,143.9,78.1,143.9,78.3 M144.7,75.9c0.2,0,0.4,0.8,0.4,0.8c0.6,2,0,4.3-0.1,4.3c-0.2,0-0.4,0-0.5,0
	c-0.1-0.1,0.9-2.1,0.2-4.5C144.6,76.3,144.5,75.9,144.7,75.9 M156.3,76.5c-0.7,2.3,0.3,4.4,0.2,4.5c-0.1,0.1-0.4,0.1-0.5,0
	c-0.1,0-0.7-2.3-0.1-4.3c0,0,0.2-0.8,0.4-0.8C156.4,75.9,156.3,76.3,156.3,76.5 M144.9,81.1C144.9,81.1,144.9,81.2,144.9,81.1
	c0.1,0.2,0.2,0.3,0.3,0.4c-0.3,0-0.6,0-0.9,0c0,0,0-0.3,0.1-0.4C144.5,81.1,144.7,81.1,144.9,81.1 M156.5,81.1
	c0.1,0.1,0.1,0.4,0.1,0.4c-0.3,0-0.6,0-0.9,0c0.1-0.1,0.2-0.1,0.3-0.3c0,0,0-0.1,0-0.1C156.1,81.1,156.4,81.1,156.5,81.1
	 M143.6,79.5c-0.2,0.1-1.1,0.1-1.2,0c-0.1-0.2-0.1-0.8,0.2-0.8c0.3-0.1,1-0.1,1.2,0.1C144,78.9,143.9,79.5,143.6,79.5 M142.6,79.8
	c0.3,0,1.1,0,1.2,0.1c0,0.2-0.1,0.7-0.4,0.8c-0.3,0.1-0.7,0-1,0C142.1,80.7,142.3,79.8,142.6,79.8 M141.9,81.7
	c0-0.2,0.3-0.7,0.4-0.8c0.2-0.1,0.7,0,0.9,0c0.3,0.1-0.1,0.8-0.3,0.9C142.9,81.8,142,81.9,141.9,81.7 M143.8,82.1
	c0.1,0.1,0.3,0.5,0.2,0.5c-0.1,0-1.9-0.3-1.9-0.3c0.2,0.2,0.6,0.3,0.9,0.5c0.4,0.1,1.2,0.4,1.3,0.4c0.1,0.1,0.1,0.1,0.1,0.2
	c0,0.2-0.1,0.3-0.4,0.2c-0.2,0-1.2-0.3-1.5-0.4c-0.4-0.2-1.3-0.8-1.2-1C141.3,82,143.7,82.1,143.8,82.1 M144.4,77.4
	c-0.3,0-0.3-0.3-0.2-0.4c0.1-0.1,0.4-0.1,0.4,0c0,0.1,0,0.2,0,0.3C144.6,77.3,144.4,77.4,144.4,77.4 M144.2,76.8
	c-0.1-0.1-0.2-0.5,0.2-0.4c0.1,0,0.2,0.2,0.1,0.3C144.5,76.8,144.3,76.9,144.2,76.8 M144,76.2c0-0.2,0.4-0.2,0.4,0
	C144.4,76.3,144.1,76.4,144,76.2 M156.4,77.2c0-0.1,0-0.2,0-0.3c0-0.1,0.4-0.1,0.4,0c0.1,0.1,0,0.4-0.2,0.4
	C156.6,77.4,156.4,77.3,156.4,77.2 M156.4,76.7c-0.1-0.1,0-0.3,0.1-0.3c0.4-0.1,0.4,0.3,0.2,0.4C156.7,76.9,156.5,76.8,156.4,76.7
	 M156.5,76.2c0-0.2,0.4-0.1,0.4,0C156.8,76.4,156.5,76.3,156.5,76.2 M139,71.9c0.7-0.6,1.3-1,2-1.6c0,0,0.1,0.2,0.1,0.3
	c-0.1,0.1-0.4,0.3-0.4,0.3s-0.9,0.8-1.6,1.2C139.1,72,139.1,71.9,139,71.9 M140.4,74c0-0.1,0.2-0.2,0.2-0.2c0.3-0.2,0.5-0.4,0.7-0.7
	c-0.2,0-0.3,0.2-0.5,0.3c-0.2,0.2-0.5,0.3-0.6,0.5c-0.1,0-0.2-0.1-0.2-0.2c0-0.1,0.1-0.1,0.2-0.2c0.1-0.1,0.5-0.5,0.6-0.7
	c-0.3,0.1-0.9,0.8-1,0.8c-0.1,0-0.2-0.1-0.2-0.1c0-0.2,0.4-0.4,0.4-0.6c-0.1,0-0.4,0.3-0.5,0.3c-0.1,0-0.1-0.1-0.1-0.2
	c0-0.2,0.5-0.4,0.5-0.7c-0.1,0-0.6,0.5-0.7,0.5c-0.1,0-0.2-0.5,0.3-0.8c0.3-0.2,1.9-1.4,2.1-1.4c0.1,0,0.3,0.3,0.4,0.4
	c0.1,0.1,0.2,0.3,0.4,0.6c0.1,0.3,0.3,0.7,0.4,1c-0.2,0.2-2.1,1.5-2.2,1.5C140.6,74.2,140.4,74.1,140.4,74 M140.8,74.8
	c0-0.1,0.1-0.1,0.2-0.1c0.2-0.1,0.3-0.3,0.5-0.4c-0.2,0-0.5,0.2-0.6,0.3C140.8,74.6,140.8,74.7,140.8,74.8c-0.1-0.1-0.2-0.1-0.2-0.3
	c0.1-0.1,0.4-0.3,0.5-0.4c0.5-0.4,0.5-0.5,1-0.8c0.3-0.3,0.6-0.4,0.9-0.6c0.1-0.1,0.3,0.1,0.2,0.3c-0.1,0.1-0.3,0.3-0.5,0.4
	c-0.3,0.2-0.5,0.3-0.8,0.6c-0.3,0.3-0.5,0.4-0.8,0.7C141.1,74.7,140.9,74.8,140.8,74.8 M141.1,74.9c0.6-0.5,1.4-1.1,2.1-1.6
	c0.1-0.1,0.8,1.1,1.1,1.5c0.1,0.1,0.2,0.3,0.2,0.5c0,0.2-2.4,1-2.4,0.9C142,76.2,141.4,75.4,141.1,74.9 M141.7,76.7
	c0.2-0.1,0.4-0.3,0.5,0c0,0.2,0.1,1.6,0.1,1.9c0,0.3-0.1,0.9-0.1,1c0,0.1-0.1,0.7-0.1,0.9c0,0.2-0.2,0.9-0.3,1
	c-0.1,0.2-0.2,0.5-0.4,0.4c-0.2,0-0.2-0.2-0.3-0.4c-0.1-0.2-0.2-0.8-0.2-1.2c0-0.4,0.1-1.5,0.2-1.9
	C141.2,77.8,141.5,76.9,141.7,76.7 M131.5,71.7c0.2,0,6.5,2.6,9.4,5.5c0.1,0.1,0.1,0.2,0,0.3c-0.1,0-0.2-0.2-0.2-0.2
	c-0.2-0.2-0.5-0.5-0.7-0.7c0.1,0.1,0.9,1,0.9,1.1c0,0.1,0.1,0.4,0,0.4c-0.1,0-0.1-0.1-0.1-0.2c-0.2-0.3-0.5-0.5-0.7-0.7
	c0.1,0.2,0.5,0.8,0.6,0.8c0.1,0.1,0.3,0.3,0.1,0.6c-0.1,0-0.1-0.1-0.2-0.2c-0.1-0.1-0.4-0.5-0.6-0.6c0,0.1,0.9,1,0.7,1.4
	c-0.1,0-0.1-0.1-0.2-0.2c-0.4-0.5-2.6-2.9-3.6-3.7c-0.9-0.8-5-3.3-5.2-3.4C131.5,71.8,131.4,71.7,131.5,71.7 M143.1,86.8
	c0-0.1,0.1-0.1,0.1-0.2c-0.2-0.1-0.4,0.1-0.7,0.2c-0.2,0-0.5,0-0.5-0.1c0-0.2,0.3-0.1,0.3-0.2c-0.3-0.1-0.6,0.1-0.9,0.1
	c-0.2,0-0.3-0.1-0.5-0.2c0-0.1,0-0.1,0-0.2c-0.3-0.1-0.8,0-0.7-0.4c-0.1-0.1-0.2-0.1-0.3-0.1c-0.1,0-0.2-0.1-0.3-0.1
	c0,0-0.8-1.1-0.9-1.2c-0.1-0.1-0.3-0.4-0.1-0.5c0.1,0,1.9,1,3.7,1.7c0.2,0.1,0.2,0.2,0.2,0.3c0,0.1-0.1,0.2-0.2,0.2
	c-0.1,0-0.3,0-0.4-0.1c-0.1,0-1.5-0.6-1.7-0.6c0,0.1,0.3,0.2,0.4,0.3c0.3,0.2,0.7,0.3,1,0.4c0.3,0.1,0.6,0.2,1,0.3
	c0.2,0,1.1,0.2,1.1,0.4C143.8,87,143.2,87,143.1,86.8 M143.9,85.8c0.1,0.2,1.4,0.6,1.4,0.8c0,0.1-0.2,0.2-0.4,0.2
	c-0.2,0-0.7-0.2-1-0.4c-1-0.7-1.8-1.8-1.9-2.1c-0.1-0.1-0.2-0.3-0.1-0.3c0.2,0.2,1.6,1.9,3.6,1.9c0.2,0,0.5,0.4,0.3,0.5
	C145.4,86.4,144.1,85.9,143.9,85.8 M149,87.5c-0.1,0-2.3,0-3.2-0.1c0-0.1-0.2-0.8,0-0.9c0.1,0,2.6,0,3.5,0l0.3,0v1
	C149.6,87.5,149.1,87.5,149,87.5 M144.6,90.9c0.2-0.3,0.6-1,0.6-1c0,0,0.4-0.1,0,0.4c-0.1,0.1-0.2,0.2-0.2,0.3
	c-0.2,0.3-0.4,0.7-0.5,0.7C144.4,91.4,144.6,91.1,144.6,90.9 M146.7,90.9c-0.1,0,0-0.2,0-0.3c0.1-0.1,0.8,0,0.9,0c0,0,0,0.1,0.1,0.1
	c0,0.2-0.1,0.2-0.2,0.3C147.3,91.1,146.7,90.9,146.7,90.9 M147.7,90.5c0,0.1-0.3,0-0.4,0c-0.3,0-0.4-0.1-0.5-0.1c0,0,0-0.1,0-0.1
	c0-0.2,0.5,0,0.7,0C147.6,90.4,147.7,90.4,147.7,90.5 M147.7,90.8c0-0.1,0-0.3,0.1-0.3c0.1-0.1,0.2,0,0.3,0c0,0.1,0,0.3-0.1,0.4
	c-0.1,0.3-0.1,0.5-0.1,0.8c0,0.1,0,0.3-0.1,0.3c-0.1,0-0.1,0-0.2-0.1c0.1-0.2,0.2-0.8,0.2-0.8C147.7,91.1,147.7,90.9,147.7,90.8
	 M146.3,90.7c-0.1,0.2-0.2,0.5-0.3,0.8c-0.1,0.1-0.1,0.3-0.2,0.3c-0.2,0,0-0.3,0-0.5c0.1-0.2,0.2-0.5,0.3-0.7c0-0.1,0.1-0.3,0.2-0.3
	C146.5,90.2,146.3,90.6,146.3,90.7 M145.6,91.5c0,0-0.1,0.1-0.1,0.1c-0.1,0-0.5-0.1-0.5-0.2C145,91.2,145.6,91.5,145.6,91.5
	 M145.1,91.1c-0.1-0.3,0.5-0.2,0.5-0.1c0,0,0.1,0,0.1,0.1c0,0.1-0.1,0.2-0.2,0.2c0,0-0.2,0-0.2,0C145.2,91.3,145.1,91.2,145.1,91.1
	 M145.9,90.5c-0.1,0-0.4,0-0.4-0.1c0-0.1,0-0.1,0.1-0.2C145.9,90,146.3,90.4,145.9,90.5 M145.9,90.7c0,0.1-0.1,0.3-0.2,0.2
	c-0.1,0-0.4-0.1-0.4-0.2c0-0.1,0.1-0.2,0.1-0.2C145.6,90.5,145.9,90.6,145.9,90.7 M136.2,108.3c0-0.1-0.6-0.8-0.7-1
	c-0.1-0.2-0.6-1.1-0.8-1.4c-0.1-0.2-1-2.2-1.3-3.5c-0.3-1.3-0.3-2.4-0.3-3c0.2-3.1,0.3-3,0.6-4.2c0,0,0.8,1.1,1,1.5
	c0.9,1.4,3.2,3.4,3.4,3.5c0.2,0.1,0.3,0.2,0.2,0.3c-0.1,0.2-0.5,1.4-0.5,1.5c-0.1,0-0.1-0.1-0.1-0.1c-0.1-0.1-0.2-0.3-0.4-0.4
	c-0.5-0.5-1.3-1.6-1.5-1.7c-0.1-0.2-1.2-1.6-1.3-1.9c-0.2-0.3-0.3-0.6-0.5-0.6c0,0-0.2,0-0.2,1.4c0,1.4,0.2,4.8,3.1,8.9
	c0,0,0.1,0.2-0.1,0.4c-0.1,0.1-0.3,0.2-0.4,0.4c0,0-0.1,0-0.1,0C136.4,108.5,136.3,108.4,136.2,108.3 M150.4,116.4c0,0-0.1-6-0.1-6
	c0-0.1-0.2-0.1-0.3-0.1c0,0-2.1-0.1-2.6-0.1c-0.5,0-2-0.3-2.9-0.6c-2.7-0.9-4.6-2.4-4.9-2.7c-2.2-2-3.5-4.2-4.2-5.6
	c-0.7-1.4-0.8-1.9-0.9-2.1c0-0.1-0.1-0.3-0.2-0.3c-0.1,0.1-0.1,0.2,0,0.3c0,0.3,0.3,0.9,0.3,1c0.3,0.7,0.6,1.4,1,2.1
	c0.1,0.2,0.5,0.9,0.5,1c-0.1-0.1-0.7-1-0.9-1.4c-0.2-0.3-0.5-1.3-0.7-1.3c-0.1,0.3,0.1,0.6,0.2,1.1c0.1,0.5,0.6,1.9,0.8,2.3
	c0.2,0.3,0.6,0.9,0.9,1.3c0.1,0.2,0.3,0.3,0.3,0.5c-0.1,0-1-1.2-1.2-1.5c0,0.2,0,0.2,0.2,0.6c0.6,1.2,1.7,2.2,1.8,2.3
	c0.1,0.1,0.7,0.7,0.8,0.8c0.1,0.1,0.8,0.7,0.8,0.8c-0.3-0.2-0.6-0.4-0.8-0.5c-0.2-0.2-1-0.9-1.3-1.3c-0.2-0.1-0.1,0-0.1,0
	c1,1.3,2.8,3,5.4,4.1C146.7,112.7,148.9,113.2,150.4,116.4L150.4,116.4z M150.6,105.2c0.4,0,0.9,0,1.3-0.1c0,0,0-0.1,0-0.1
	c-0.4,0-0.8,0-1.3,0l0-0.4c0.3,0,1.2,0,1.2-0.1c0-0.1-0.9,0-1.2-0.1l0-0.3c0.2,0,1.1,0,1.1-0.1c0-0.1-0.8,0-1.1-0.1v-0.3
	c0.3,0,1.3-0.1,1.3-0.2c0-0.1-0.9,0-1.3,0V103c0.3,0,1.3,0,1.3-0.1c0-0.1-1-0.1-1.3-0.1v-0.4c0.2,0,1,0,1-0.1c0-0.1-0.9-0.1-1-0.1
	c0-0.1,0-0.2,0-0.3c0.3,0,1.3,0,1.3-0.1c0-0.1-1,0-1.3-0.1v-0.3c0.2,0,1.1,0,1.1-0.1c0-0.1-0.9-0.1-1.1-0.1v-0.3
	c0.4,0,1.3,0,1.3-0.1c0-0.1-1-0.1-1.3-0.1v-0.4c0.2,0,1.2,0,1.2-0.1c0-0.1-1-0.1-1.2-0.1v-0.3c0.2,0,1,0,1-0.1c0-0.1-0.8-0.1-1-0.1
	v-0.3c0.4,0,0.9,0,1.3-0.1c0-0.1,0.1-0.1,0-0.1c0,0-1.2,0-1.3,0v-0.4c0.8,0,2.3-0.2,2.4-0.2c0.1,0,0.5-0.1,0.7,0
	c0.1,0.4-1,0.5-1.3,0.5c0.1,0.2,0.9,0.1,1.1,0c0.2,0,0.3,0.1,0.3,0.3c-0.1,0.1-1,0.2-1.1,0.3c0.1,0.1,0.9,0,1,0
	c0.1,0,0.1,0.1,0.1,0.3c-0.2,0.3-0.8,0.1-1,0.3c0.1,0.1,1-0.1,1.1,0c0,0.1,0.1,0.2,0,0.3c-0.1,0.1-1.1,0.2-1.1,0.3c0,0.1,0.9,0,1,0
	c0.1,0,0.1,0.1,0.1,0.2c0,0.2-0.4,0.2-0.7,0.2c-0.1,0-0.3,0-0.3,0.1c0,0.1,0.9,0,1,0c0.1,0.1,0.1,0.1,0.1,0.2c0,0.2-0.6,0.2-0.8,0.3
	c0,0.1,0.1,0.1,0.2,0.1c0.2,0,0.4-0.1,0.6-0.1c0.1,0,0.1,0.2,0.1,0.3c-0.1,0.1-1.2,0.2-1.1,0.3c0,0.1,0.3,0,0.3,0
	c0.3,0,0.5-0.1,0.8-0.1c0.1,0.1,0.1,0.2,0.1,0.3c0,0-0.7,0.2-0.7,0.3c0,0.1,0.1,0,0.2,0c0.3,0,0.7-0.3,0.7,0.2
	c-0.2,0.1-0.9,0.2-1.1,0.3c0.1,0.1,0.3,0.1,0.4,0.1c0.3,0,0.5-0.1,0.8-0.1c0.1,0.1,0.2,0.2,0.2,0.3c0,0.1-1.2,0.2-1.2,0.4
	c0.1,0.1,0.2,0,0.3,0c0.2,0,0.9-0.2,1-0.1c0.1,0,0.2,0.2,0.2,0.3c0,0.1-0.1,0.1-0.2,0.1c-0.3,0.1-0.6,0.2-1,0.2c0,0-0.2,0-0.2,0.1
	c0,0.1,0.2,0,0.2,0c0.2,0,1.3-0.3,1.4,0.1c-0.3,0.2-0.7,0.2-1.1,0.3c0,0-0.2,0-0.2,0.1c0.1,0.1,1.3-0.2,1.4-0.2
	c0.1,0,0.3,0.2,0.3,0.3c0,0.1-0.3,0.1-0.4,0.1c-0.5,0.1-0.9,0.2-1.4,0.2c0,0,0,0.1,0,0.1c0.5,0,1.1-0.2,1.6-0.2
	c0.3,0,0.5-0.1,0.7,0.2c-0.2,0.1-1.7,0.4-1.9,0.5c0,0.1,0.2,0.1,0.2,0.1c0.5-0.1,1-0.2,1.5-0.3c0.2,0,0.4-0.1,0.6-0.1
	c0.1,0,0.7,0.1,0.4,0.3c-0.2,0.1-2.1,0.5-2.2,0.5c-0.1,0-0.2,0-0.2,0.1c0.3,0.1,2.9-0.6,3.1-0.6c0.1,0,0.5,0,0.8,0
	c-0.1,0.1-2.5,0.8-2.9,0.8c0,0.1,0,0.1,0,0.1c1.1-0.2,3-0.8,3.3-1c0.9-0.4,2-1.1,2.5-1.6c2.5-2.2,3.5-3.6,4.2-4.6
	c0.7-1,1.1-1.6,1.1-1.6c0,0.2,0,0.4-0.1,0.7c-0.1,0.3-0.6,1.5-0.7,1.8c-0.1,0.3-0.4,0.8-0.6,1.1c-0.1,0.3-0.4,0.7-0.6,1
	c-0.6,0.9-2.4,3.3-2.9,3.6c-0.5,0.4-0.7,0.6-1.8,1.5c-1.1,0.9-4.6,2.1-7.6,2.2c-1,0-1.1,0-1.5,0c-0.1,0-0.1-0.3,0-0.3
	c0.4,0,1.7-0.1,1.7-0.2c0-0.1-1.3-0.1-1.7-0.1c-0.1,0-0.1-0.3,0-0.4c0.3,0,1.2,0,1.2-0.2c0-0.1-0.8,0-1.2,0
	c-0.1-0.1-0.1-0.3,0.1-0.3c0.1,0,0.2,0,0.3,0c0.2,0,1.2-0.1,1.2-0.2s-1.5,0-1.5-0.1c-0.1-0.1-0.1-0.3,0-0.4c0.3,0,1.4-0.1,1.5-0.2
	c0-0.1-1.3,0-1.4,0c-0.1-0.1-0.1-0.3,0-0.4c0.1,0,1.4,0,1.4-0.2c0-0.2-1.6,0.1-1.5-0.2c0-0.2,1.2-0.2,1.2-0.3c0-0.1-0.8,0-1.2,0
	c-0.1,0-0.1-0.3,0-0.4c0.4,0,1.2,0,1.2-0.1c0-0.1-1-0.1-1.2-0.1c-0.1,0-0.1-0.2,0-0.3c0.1-0.1,1.2,0.1,1.2-0.1c0-0.2-1-0.1-1.3-0.2
	V105.2z M150.6,98.2c0.4-0.1,0.9-0.1,1.4-0.1c0.4,0,0.9-0.1,1.2-0.2c0.2,0,0.4-0.1,0.5,0c-0.1,0.2-0.4,0.2-0.6,0.3
	c-0.7,0.1-1.7,0.1-2.5,0.2 M154,97.8c-0.2-0.1,0,3.4,0.7,5.1c0.7,1.7,2,3,3.9,2.7c1.2-0.2,3-1.8,3-1.8c0.1-0.1-0.2,0-0.2,0
	c-1.5,0.3-1.9-0.5-1.8-0.8c0-0.2,0.2-0.2,0.2-0.4c0-0.2-0.1-0.3-0.3-0.4c-0.3-0.1-0.4,0.1-0.6,0.1c-0.5,0.2-0.7,0.2-1.1,0.3
	c-0.4,0.1-0.9,0.2-1.1,0.1c-0.2,0-0.3-0.3-0.3-0.5c0-0.1,0-0.3,0-0.4c0-0.3-0.1-0.4-0.3-0.6c-0.1-0.1-0.2-0.2-0.3-0.4
	c-0.2-0.1-0.4,0-0.5-0.1c0-0.2,0-0.4,0-0.5C155.6,100,154.3,98,154,97.8 M159.8,101.8c0.1-0.2,1.1-0.9,1.3-1c0.1,0,0.3,0.4,0.3,0.5
	c-0.1,0.2-1,0.8-1.2,1C160,102.1,159.9,102,159.8,101.8 M166.8,98.6c0,0,0.1-0.1,0.1,0.1c-0.1,0.8-1.1,2.8-1.4,3.4
	c-0.3,0.5-2.1,3.2-2.3,3.2c-0.1,0.1-1.4,1.6-2,2c-0.6,0.4-1.3,0.9-1.9,1.3c-0.4,0.2-2.8,1.3-4.5,1.5c-2.2,0.3-4.2,0.3-4.2,0.2
	c0-0.1,0.2-0.1,0.3-0.1c0.7,0,2.6-0.1,3-0.2c0.4-0.1,1.5-0.2,1.9-0.3c0.4-0.1,1.7-0.5,2.2-0.7c0.5-0.2,1.4-0.7,1.9-1
	c0.5-0.3,1.3-1,1.6-1.3c0.4-0.3,2.3-2.5,2.7-3.1c0.4-0.6,1.6-2.5,1.7-2.7C165.9,100.8,166.5,99.4,166.8,98.6 M150.9,116
	c-0.1,0-0.3,0-0.3-0.1c0-0.1,0.3-0.1,0.4-0.1C151,115.9,151,116,150.9,116 M151.2,115.6c-0.1,0-0.6,0-0.6-0.1c0-0.1,0.6-0.2,0.8-0.2
	C151.3,115.4,151.2,115.5,151.2,115.6 M151.4,115.1c-0.1,0-0.8,0-0.8-0.2c0-0.1,0.9-0.2,1.1-0.1C151.6,114.9,151.5,115,151.4,115.1
	 M151.9,114.6c-0.3,0-1.6,0-1.2-0.3c0.4,0,1.1,0,1.6-0.1C152.1,114.2,151.9,114.5,151.9,114.6 M152.4,114c-0.4,0.2-0.9,0.1-1.3,0
	c-0.2,0-0.5,0-0.5-0.1c0-0.2,0.8-0.2,1-0.2c0.5,0,0.9,0,1.3-0.1C152.7,113.7,152.5,113.8,152.4,114 M153.2,113.4
	c-0.5,0.1-0.9,0.2-1.5,0.1c-0.1,0-1.1,0-1.1-0.1c0-0.2,2.2-0.3,2.5-0.4c0.2,0,0.5-0.1,0.7-0.1C153.7,113,153.3,113.3,153.2,113.4
	 M154.1,112.7c-0.1,0-0.8,0.1-1,0.1c-0.1,0-1.3,0.1-1.6,0.1c-0.2,0-0.9,0-0.9-0.1c0-0.2,0.8-0.2,1.1-0.2c1.5,0,3-0.3,3.4-0.4
	C154.9,112.4,154.2,112.7,154.1,112.7 M158.5,110.9c-2.6,1-3.2,1.1-3.5,1.2c-0.2,0-0.3,0.1-0.6,0.1c-0.2,0-1,0.2-1.3,0.2
	c-0.3,0-2.3,0.1-2.4,0.1c-0.1-0.1-0.3-0.3,0.2-0.3c0.3,0,0.8,0,1.1,0c0.4,0,2.2-0.2,2.2-0.3c-0.5,0-2.4,0.2-2.8,0.2
	c-0.1,0-0.9,0-0.8-0.2c0-0.2,0.2-0.1,0.3-0.1c0.1,0,1.2,0,1.7-0.1c0,0,0.1,0,0.1-0.1c0-0.1,0,0-0.1,0c-0.2,0-1.1,0.1-1.5,0
	c-0.1,0-0.6,0-0.6-0.1c0-0.2,0.3-0.2,0.5-0.2c0.9,0,1.9-0.1,2.8-0.2c0.2,0,1.4-0.2,1.7-0.3c0.1,0,0.2,0,0.2-0.1
	c-0.4,0-2.3,0.4-4.8,0.4c-0.1,0-0.4,0-0.4-0.1c0-0.1,0.4-0.1,0.5-0.1c0.4,0,1.4-0.1,1.5-0.1c0.4,0,1.3-0.1,2.4-0.3
	c1.1-0.2,1.1-0.2,1.8-0.4c0.7-0.2,2.1-0.7,2.8-1.1c1-0.6,2.8-1.8,4.1-3.6c0.4-0.6,1.8-2.3,2.5-3.9c0.2-0.4,0.4-0.9,0.6-1.2h0.1
	c0,0.2,0,0.3-0.1,0.4c-0.2,1-1.1,2.4-1.2,2.6c-0.1,0.2-0.9,1.3-1,1.5c-0.1,0.2-0.4,0.5-0.5,0.8c0.1,0,0.3-0.3,0.5-0.4
	c0.1-0.2,0.7-1,1-1.4c0.3-0.4,0.8-1.6,0.9-1.8c0.1-0.2,0.1-0.2,0.2-0.2c0,0.1,0,0.3,0,0.4c-0.1,0.3-0.3,0.7-0.4,1
	c-0.2,0.3-0.9,1.3-0.9,1.7c0.1,0,0.8-1.3,0.9-1.3c0.1,0.1-0.2,0.8-0.4,1.2c-0.2,0.4-1.9,2.5-2,2.7c-0.1,0.1-0.4,0.4-0.5,0.6
	c0.1,0,0.1-0.1,0.2-0.1c0.7-0.5,1.8-2.2,2.1-2.4c-0.1,0.3-0.8,1.4-1.2,1.9C163.8,107.5,161.3,109.9,158.5,110.9 M164.5,108.5
	c-0.1-0.1-0.3-0.3-0.4-0.4l0-0.1c0-0.1,0-0.1,0.2-0.4c2.8-3.5,2.8-7.6,2.8-9.9c0-0.1-0.1-0.5-0.2-0.5c-0.1,0-0.2,0.2-0.3,0.3
	c-0.1,0.1-2.6,3.5-3,4c-0.4,0.4-0.3,0.4-0.6,0.5c-0.1-0.4-0.3-0.9-0.5-1.4c0-0.1-0.1-0.2-0.1-0.3c0-0.1,0.2-0.2,0.3-0.3
	c1-0.8,3.8-3.5,4.4-4.9c0,0,0,0,0,0c0.1,0.2,0.1,0.4,0.2,0.7c0.4,1.5,0.4,3.1,0.3,3.6c0,0.5,0,3.6-1.5,6.5c-0.1,0.2-0.6,1-0.8,1.3
	c-0.2,0.3-0.4,0.6-0.6,0.9C164.8,108.3,164.7,108.5,164.5,108.5C164.6,108.5,164.5,108.5,164.5,108.5 M162,101.5
	c0.2-0.1,0.4-0.3,0.5-0.1c-0.2,0.2-0.4,0.4-0.6,0.6c0.3-0.1,0.6-0.2,0.8-0.4c0,0.1,0,0.1,0,0.2c-0.2,0.3-0.5,0.5-0.7,0.8
	c0.1,0,0.3-0.1,0.4-0.1c0.1,0,0.1-0.1,0.2-0.1c0,0.1-0.1,0.2-0.1,0.3c-0.6,1-1.6,1.1-2.2,0.8c-0.1-0.1-0.4-0.3-0.4-0.4
	C159.9,102.9,161.7,101.7,162,101.5 M161.8,99.6c-0.1,0.2-0.2,0.4-0.4,0.5c-0.2,0.2-2.4,1.8-2.8,2c-0.2,0.1-0.4,0.1-0.6,0.2
	c0-0.1,3.5-2.7,3.8-2.9h0C162,99.4,161.9,99.5,161.8,99.6 M162.4,98.2c0.2,0.1-0.1,0.3-0.2,0.4c-1.7,1.2-3.3,2.5-5,3.7
	c-0.1,0.1-0.2,0.3-0.4,0.1C156.9,102.3,162.2,98.4,162.4,98.2 M162.1,98.1L162.1,98.1c0.1,0.1,0,0.1-0.1,0.2
	c-1.3,0.9-4.7,3.5-5.1,3.8c0,0-0.1,0.1-0.2,0.1c0-0.1,0.1-0.2,0.2-0.3C157.6,101.3,161.9,98.2,162.1,98.1 M163.5,88.4
	c0,0,0.5-0.5,1.2-0.5c0.7-0.1,1.3,0.3,1.9,1c0.3,0.4,0.6,0.9,0.7,1.5c0,0.1,0,0.1,0,0.2c0,0.2-0.6,0-1,0c-0.6,0-1.3,0.5-1.8,0.9
	c-0.3,0.3-1.1,1-1.5,1.4c-0.4,0.4-5.5,4.8-12.6,4.8c-8.3,0-13.4-5.6-14-6.1c-0.5-0.4-1.2-1-1.9-1c-0.3,0-1,0.2-1,0
	c0-0.1,0-0.1,0-0.2c0.1-0.7,0.4-1.1,0.7-1.5c0.6-0.7,1.2-1.1,1.9-1c0.7,0.1,1.2,0.5,1.2,0.5c0.8,0.5,6.1,5.7,12.7,5.7
	c7.1,0,12.4-5.2,13-5.6C163.3,88.5,163.4,88.5,163.5,88.4 M157,91.6c0,0.1-0.5,0.3-0.6,0.3c-0.5,0.2-0.8,0.3-1.3,0.5
	c-0.3,0.1-0.5,0.2-0.8,0.2c-0.4,0-0.8,0.2-1.2,0.2v0.1c1.1-0.1,2.1-0.4,3-0.7c0.3,0,0.5-0.1,0.7-0.2c0.1,0,0.3-0.1,0.4,0
	c0,0.2-0.2,0.2-0.4,0.3c-0.1,0.1-0.3,0.1-0.5,0.2c-0.3,0.1-0.6,0.2-1,0.3c-0.3,0.1-0.7,0.2-1,0.3c-0.3,0.1-0.5,0.1-0.8,0.2
	c-0.1,0-0.2,0-0.2,0.1c0.8-0.1,1.5-0.3,2.2-0.4c0,0.1-0.1,0.1-0.1,0.1c-0.6,0.3-1.3,0.5-2.1,0.6c-0.7,0.1-1.4,0.3-2.1,0.3
	c-1,0.1-2.1,0-3-0.1c-0.2,0-1.5-0.3-1.9-0.4c-0.2-0.1-2.1-0.8-2.6-1c0-0.1,0.1-0.2,0.2-0.2c0.5,0.1,1.8,0.5,2,0.5
	c-0.1-0.2-1.4-0.5-1.8-0.7c0,0,0.1-0.2,0.1-0.2c1.7,0.4,3.7,0.8,5.7,0.9c0.8,0,1.7,0,2.5-0.1c0.5,0,0.9-0.1,1.4-0.2
	c0.2,0,0.5-0.1,0.7-0.1c0.3-0.1,0.5-0.1,0.8-0.2c0.3-0.1,0.6-0.2,0.8-0.3c0.1,0,0.1,0,0.2,0c0.1,0,0.1-0.1,0.2-0.1
	c0.1,0,0.2,0,0.2-0.1C156.7,91.5,156.9,91.5,157,91.6 M148.1,92c0-0.2,0.2-0.2,0.3-0.2c0.1,0,0.8,0.1,0.9,0.2c0,0.1,0,0.2-0.1,0.3
	c-0.3,0-0.9-0.1-0.9-0.1C148.1,92.1,148.1,92.1,148.1,92 M148.4,91.7c-0.2,0-0.2-0.1-0.2-0.2c0,0,0-0.1,0-0.2c0.1-0.1,1,0,1,0.1
	c0,0.1,0,0.2,0,0.2C149.2,91.8,148.6,91.7,148.4,91.7 M149.3,90.7c-0.2,0.1-0.7,0-0.9,0c-0.1,0-0.1-0.2,0-0.2c0.2,0,0.7,0,0.9,0.1
	C149.4,90.6,149.3,90.7,149.3,90.7 M149.4,91.5c0-0.2,0-0.3,0-0.6c0-0.2,0-0.4,0.1-0.4c0.3-0.1,0.2,0.3,0.2,0.5c0,0.2,0,0.4,0,0.6
	c0,0.2,0,0.6-0.2,0.7C149.1,92.3,149.3,91.8,149.4,91.5 M148.4,90.8c0.1,0,0.9,0,0.9,0.2c0,0.1,0,0.2-0.1,0.3
	c-0.1,0-0.9-0.1-0.9-0.2C148.2,91,148.3,90.8,148.4,90.8 M150.9,92c0,0,0.1,0.1,0.2,0.1c0.1,0.2-0.1,0.2-0.4,0.2c-0.2,0-0.4,0-0.5,0
	c-0.1,0-0.3,0-0.3-0.1c0-0.1,0-0.2,0.1-0.2C150.1,92,150.8,91.9,150.9,92 M150.1,91.4c-0.1,0-0.1-0.2-0.1-0.3c0-0.1,0.9-0.1,1,0
	c0.1,0.1,0,0.1,0,0.2C151,91.4,150.2,91.4,150.1,91.4 M150.8,91.4c0.1,0,0.3,0.1,0.3,0.2c0,0.1,0,0.1-0.1,0.2c0,0-0.5,0-0.5,0
	c-0.1,0-0.4,0-0.5-0.1c-0.1-0.1,0-0.2,0.1-0.3c0.1-0.1,0.2,0,0.3,0C150.5,91.4,150.7,91.5,150.8,91.4 M151.2,90.5
	c0.1,0,0.1,0.2,0.1,0.4c0,0.2,0.1,1.1,0.1,1.3c0,0.3-0.3,0-0.3-0.5C151.1,91.2,151,90.5,151.2,90.5 M150.2,90.5c0.2,0,0.7-0.1,0.8,0
	c0.1,0,0,0.2-0.1,0.3c-0.1,0-0.8,0-0.8-0.1C150.1,90.6,150.1,90.6,150.2,90.5 M155,90.2c-0.1,0-0.4,0.1-0.4,0c0-0.1,0.4-0.2,0.5-0.3
	c0,0,0.1,0,0.1,0s0.1,0,0.1,0.1C155.4,90,155.2,90.1,155,90.2 M155.5,90.2c0,0.1,0.1,0.1,0.1,0.2c0,0.1-0.6,0.3-0.7,0.3
	c-0.1,0-0.2-0.2-0.2-0.3c0-0.1,0.1-0.1,0.3-0.2C155.3,90.3,155.4,90.1,155.5,90.2 M154.4,91.4c-0.1-0.2-0.1-0.4-0.2-0.6
	c0-0.1-0.1-0.2-0.2-0.4c0-0.1-0.1-0.4,0.1-0.3c0.1,0,0.1,0.3,0.2,0.4c0.1,0.3,0.2,0.5,0.3,0.8c0.1,0.1,0.3,0.5,0,0.5
	c-0.1,0-0.1,0-0.2-0.1C154.4,91.6,154.4,91.4,154.4,91.4 M153.7,92c-0.1,0-0.1-0.2-0.1-0.3c0,0,0.6-0.2,0.6-0.2
	c0.1,0,0.2,0.2,0.1,0.3C154.3,91.9,154.1,92,153.7,92 M153.6,91.6c-0.1,0-0.1-0.1-0.1-0.3c0-0.1,0.4-0.2,0.7-0.2
	c0.1,0.1,0.1,0.3,0.1,0.3C154.2,91.6,153.7,91.7,153.6,91.6 M154,90.8c0,0.1,0.1,0.2,0,0.2c0,0-0.1,0.1-0.2,0.1
	c-0.1,0-0.3,0.1-0.3,0.1c-0.1,0-0.2-0.2-0.1-0.3c0-0.1,0.4-0.1,0.5-0.2C153.9,90.6,154,90.7,154,90.8 M153.3,90.6
	c-0.1,0-0.1-0.1-0.1-0.2c0,0,0.6-0.3,0.6-0.1C153.9,90.6,153.4,90.6,153.3,90.6 M152.8,91.1c0-0.2-0.1-0.4-0.1-0.5
	c0-0.1-0.1-0.2,0.1-0.2c0.2,0,0.2,0.3,0.2,0.5c0.1,0.4,0.2,0.9,0.3,1.2c0,0.1-0.2,0.1-0.3,0C153,91.9,152.8,91.1,152.8,91.1
	 M152.8,92.2c-0.2,0.1-0.8,0.1-0.9,0.1c-0.1,0-0.1-0.1-0.1-0.2c0-0.1,0.1-0.1,0.2-0.1c0.1,0,0.7-0.1,0.8-0.1
	C152.9,92,152.9,92.2,152.8,92.2 M152,91.9c-0.1,0-0.2-0.2-0.2-0.3c0-0.1,0.4-0.1,0.4-0.1c0.1,0,0.4-0.1,0.4,0.1
	c0,0.2,0.1,0.2,0,0.3C152.6,91.8,151.9,91.9,152,91.9 M152.7,91.2c0,0.1-0.3,0.1-0.4,0.1c-0.2,0-0.4,0.1-0.5,0
	c-0.1-0.1-0.1-0.3,0-0.3c0.1,0,0.2-0.1,0.3-0.1c0.2,0,0.4-0.1,0.5,0C152.7,91,152.7,91,152.7,91.2 M152.5,90.7
	c-0.1,0-0.4,0.1-0.5,0.1c-0.1,0-0.3,0.1-0.3,0c-0.1-0.4,0.6-0.3,0.7-0.3C152.5,90.5,152.6,90.7,152.5,90.7 M155.2,91.5
	c0-0.1,0.2-0.2,0.3-0.2c0.1-0.1,0.3-0.2,0.4-0.2c0.1,0,0.1,0.1,0.2,0.1c0,0.1-0.2,0.2-0.3,0.2c-0.2,0.1-0.3,0.2-0.4,0.2
	C155.3,91.6,155.3,91.6,155.2,91.5 M155.7,90.3c-0.1-0.1-0.2-0.3-0.2-0.4c-0.1-0.1,0.1-0.3,0.4,0.1c0.1,0.3,0.3,0.5,0.4,0.7
	c0.1,0.1,0.3,0.5,0.1,0.5c-0.1,0-0.2-0.1-0.2-0.2C156.1,91,155.7,90.3,155.7,90.3 M155.8,91c-0.1,0.1-0.6,0.3-0.7,0.2
	c-0.1,0-0.1-0.1-0.1-0.2c0-0.1,0.2-0.1,0.3-0.2c0.2-0.1,0.4-0.2,0.5-0.1C155.9,90.8,155.8,91,155.8,91 M156.2,86.7
	c-0.6,0-0.4-0.1-0.5-0.2c0-0.1,0.2-0.2,0.4-0.2c0,0,0.3-0.1,0.4-0.2c0.2-0.1,0.3-0.1,0.4-0.2c0.1,0,0.2-0.1,0.2-0.2
	c-0.2,0-0.7,0.2-0.7,0.2c-0.3,0-1,0.3-1.1,0.3c-0.1-0.2,0.1-0.5,0.3-0.5c1.3,0.1,2.3-0.8,3.6-1.9h0C159.2,84,157.2,86.7,156.2,86.7
	 M161.2,85.4c-0.2,0.1-0.4,0.1-0.5,0.2c0.1,0.4-0.4,0.4-0.7,0.4c0,0,0,0.1,0,0.2c-0.3,0.4-0.9,0.1-1.3,0.1c0,0.1,0.3,0.1,0.3,0.2
	c0,0.1-0.3,0.2-0.5,0.2c-0.2,0-0.5-0.2-0.7-0.2c0,0,0.1,0.1,0.1,0.2c-0.1,0.2-0.8,0.1-0.8-0.1c0-0.1,0.8-0.4,1.1-0.4
	c0.4-0.1,0.6-0.2,1-0.3c0.4-0.1,0.7-0.3,1-0.4c0.1-0.1,0.3-0.2,0.4-0.3c-0.1,0-0.2,0.1-0.3,0.1c-0.1,0-1.6,0.6-1.8,0.6
	c-0.1,0-0.2-0.1-0.2-0.2c0-0.1,0.4-0.5,0.4-0.5c0.2,0,2.8-1.1,3-1.2c0.2-0.1,0.6-0.4,0.6-0.2C162.3,83.9,161.5,85.2,161.2,85.4
	 M166.9,81.9c-0.1,0.1-0.2,0.3-0.2,0.3c-0.1,0.3-0.3,0.3-0.5,0.4c0.1,0.4-0.3,0.5-0.6,0.6c0,0.1,0.1,0.1,0.1,0.1
	c0,0.1-0.8,0.4-0.8,0.5c0,0.1,0.1,0.1,0,0.2c-0.1,0.1-0.1,0.2-0.3,0.2c-0.2,0.1-0.4,0-0.6,0.1c0,0.1,0.1,0.1,0.1,0.1
	c-0.2,0.4-0.9,0.2-1.3,0.2c0.1,0.1,0.4,0,0.4,0.2c0,0.1-0.3,0.2-0.4,0.2c-0.3,0-0.7,0-0.7,0c0.4,0.2-0.3,0.4-0.5,0.2
	c0.1-0.1,0.4-0.6,0.5-0.7c0.1,0,0.3-0.1,0.4-0.1c0.2-0.1,0.9-0.4,0.9-0.4c0.4-0.2,0.9-0.4,1.3-0.7c-0.4,0.1-2.1,0.9-2.4,0.8
	c0-0.1,0.1-0.3,0.2-0.4c0.1-0.2,0.3-0.4,0.5-0.5c0.1,0,0.8-0.3,1-0.4c0.1,0,2.4-1.4,2.5-1.5c0.2-0.1,0.3-0.2,0.5-0.1
	C167.1,81.7,167,81.8,166.9,81.9 M168.7,78.2c0.1,0.2-0.9,1.5-1.2,1.8c0,0.1,0.1,0.1,0.1,0.1c0,0.1-0.2,0.3-0.3,0.4
	c-0.1,0.1-2.7,2.3-4,2.6c-0.5,0.1-0.4,0-0.5-0.1c-0.1-0.2,0.3-0.6,0.6-0.7c0.2-0.1,2.4-1.3,2.7-1.6c0,0,0,0,0,0
	c-0.2,0-1.1,0.5-1.3,0.6c-0.2,0.1-0.5,0.1-0.5,0c0.1-0.1,2-1.4,2.2-1.6C166.8,79.6,168.4,78.3,168.7,78.2 M169.7,74.2
	c0,0.1,0,0.1,0,0.3c0,0.2-0.6,1.6-1.5,3c-0.6,0.9-4.1,3.5-4.4,3.6c0.3-0.2,0.9-1.4,1.1-1.6c2.6-1.7,3.1-2.6,3.2-2.7c0,0-2.3,2-2.7,2
	c-0.1-0.2,0.4-1.1,0.6-1.2c0.1-0.1,1-0.6,1.4-1c0.4-0.4,1.8-2.1,2-2.2C169.4,74.3,169.5,74.1,169.7,74.2 M168.4,74.8
	c-0.2,0.3-1.9,2.5-3.1,2.5c-0.2,0,0.2-0.6,0.2-0.6s1-0.7,1.9-1.6c0.4-0.4,0.7-0.9,0.7-0.9c0,0-1.2,1-1.4,1.2
	c-0.2,0.1-0.8,0.6-0.9,0.5c-0.1-0.1,0.4-1.4,0.5-1.5c0.1-0.1,0.3-0.4,0.4-0.3c0.1,0.1-0.2,0.6-0.1,0.6c0.1,0,0.5-0.8,0.6-1
	c0-0.1,0.2-0.2,0.3-0.1c0.1,0-0.1,0.5,0.1,0.3c0.2-0.2,0.4-0.8,0.7-0.8c0.1,0-0.1,0.3-0.1,0.5c0.5-0.8,0.8-1,0.9-1
	c0.1,0,0,0.3,0,0.3c0,0,0.1-0.1,0.2-0.3c0.2-0.4,1-1,1.1-0.9C170.5,71.5,168.7,74.4,168.4,74.8 M133.8,81.6c0.2-0.1,0.4,0,0.5,0.1
	c0.1,0.1,2.4,1.4,2.5,1.5c0.2,0.1,0.9,0.4,1,0.4c0.3,0,0.4,0.3,0.5,0.5c0.1,0.1,0.2,0.2,0.2,0.4c-0.2,0.1-2-0.8-2.4-0.8
	c0.4,0.3,0.9,0.5,1.3,0.7c0.1,0,0.7,0.4,1,0.4c0,0,0.3,0.1,0.4,0.1c0,0.1,0.4,0.6,0.5,0.7c-0.2,0.2-0.9,0-0.5-0.2c0,0-0.5,0.1-0.7,0
	c-0.1,0-0.4-0.1-0.4-0.2c0-0.2,0.4-0.1,0.4-0.2c-0.5,0-1.1,0.1-1.3-0.2c0-0.1,0.1-0.1,0.1-0.2c-0.1-0.1-0.4,0-0.6-0.1
	c-0.1-0.1-0.2-0.2-0.3-0.3c0-0.1,0-0.1,0-0.2c-0.1-0.1-0.8-0.4-0.8-0.5c0-0.1,0.1-0.1,0.1-0.1c-0.3-0.1-0.7-0.2-0.6-0.6
	c-0.2-0.1-0.4-0.2-0.5-0.4c0,0-0.2-0.3-0.2-0.3C133.9,81.8,133.8,81.7,133.8,81.6 M134.4,79.8c0.3,0.2,2.2,1.5,2.2,1.6
	c0.1,0.1-0.2,0.1-0.5,0c-0.2-0.1-1.1-0.6-1.3-0.6c0,0,0,0,0,0c0.2,0.2,2.4,1.5,2.7,1.6c0.2,0.1,0.7,0.5,0.6,0.7c0,0.1,0,0.2-0.5,0.1
	c-1.3-0.3-3.8-2.5-4-2.6c-0.1-0.1-0.3-0.3-0.3-0.4c0-0.1,0.1-0.1,0.1-0.1c-0.4-0.4-1.1-1.3-1-1.5C132.7,78.7,134.2,79.6,134.4,79.8
	 M131.7,74.6c0.2,0.1,1.6,1.8,2,2.2c0.4,0.4,1.3,0.9,1.4,1c0.2,0.1,0.6,1,0.6,1.2c-0.4,0-2.7-2-2.7-2c0.1,0.2,0.6,1.1,3.2,2.7
	c0.1,0.3,0.8,1.4,1.1,1.6c-0.3-0.1-3.8-2.7-4.4-3.6c-0.9-1.4-1.5-2.8-1.5-3c0-0.2-0.1-0.2,0-0.3C131.5,74.3,131.6,74.5,131.7,74.6
	 M159.5,72.8c0.3,0.2,0.5,0.3,0.8,0.5c0.1,0,0.5,0.3,0.4,0.4c-0.1,0.1-0.3-0.1-0.3-0.2C160.1,73.4,159.8,73.1,159.5,72.8
	C159.5,72.9,159.5,72.9,159.5,72.8L159.5,72.8z M160,72.6C160.1,72.6,160.1,72.7,160,72.6c0.2,0.1,0.3,0.2,0.4,0.3
	c0.1,0.1,0.3,0.2,0.4,0.3c0,0,0.2,0.2,0.2,0.3c0,0.1-0.2,0-0.3-0.1C160.5,73.2,160.2,72.9,160,72.6 M159.2,70.9
	C159.2,70.9,159.2,70.9,159.2,70.9c0.1,0,0.1,0,0.2,0c0.1,0,0.2,0.1,0.2,0.2C159.4,71.2,159.2,71.1,159.2,70.9 M160.8,72.7
	C160.8,72.7,160.8,72.7,160.8,72.7c0.2,0,0.5,0.2,0.6,0.4c-0.1,0.1-0.2-0.1-0.3-0.1C161,72.9,160.9,72.8,160.8,72.7 M158.8,71.8
	c0.1,0.1,0.3,0.1,0.3,0.2C158.9,72.1,158.7,72,158.8,71.8 M158.2,73c0.2-0.1,0.3,0.1,0.3,0.3C158.4,73.2,158.2,73.2,158.2,73
	 M158.7,75C158.7,75,158.7,75,158.7,75c0.2,0.1,0.5,0.2,0.6,0.5c-0.2,0.1-0.5-0.2-0.4-0.1C159.1,75.4,158.7,75.1,158.7,75
	 M157.3,74.6c0.2,0.1,0.4,0.2,0.5,0.4C157.6,74.9,157.1,74.7,157.3,74.6 M158.5,75.4c0,0,0.1,0,0.1,0c0.1,0.1,0.4,0.2,0.4,0.4
	c-0.2,0-0.3-0.1-0.4-0.2C158.5,75.6,158.3,75.4,158.5,75.4 M158.4,74.2c-0.2,0-0.4-0.2-0.6-0.4v0h0C157.9,73.8,158.4,74,158.4,74.2
	 M157.6,75.5c-0.3-0.1-0.5-0.2-0.6-0.4c0.1-0.2,0.3,0,0.5,0.1C157.5,75.3,157.6,75.4,157.6,75.5 M157.5,74.2
	C157.5,74.2,157.5,74.2,157.5,74.2c0.3,0,0.5,0.1,0.6,0.3C157.9,74.5,157.7,74.4,157.5,74.2 M139.7,107.5c-0.3-0.3-0.7-0.6-1-0.9
	c-0.3-0.2-0.5-0.5-0.7-0.7c-0.1-0.1-0.4-0.4-0.4-0.5c0,0,1.5,1.5,1.7,1.6c0.3,0.3,0.7,0.5,1,0.8c0.2,0.1,0.7,0.5,0.8,0.5
	c0,0,0.8,0.4,0.9,0.6c-0.5-0.1-0.8-0.4-1.2-0.6C140.5,108,140.1,107.8,139.7,107.5 M147.5,93.2c0.3,0,0.6,0.1,0.8,0.1v0.1
	c-0.3,0-0.7-0.1-1.1-0.1c-0.4,0-1-0.1-1-0.2c0-0.1,0-0.1,0.1-0.1C146.8,93.1,147.1,93.2,147.5,93.2 M146.3,92.6c0.1-0.1,0.3,0,0.4,0
	c0,0,1.5,0.2,2,0.3c0,0,0,0.1,0,0.1c-0.6-0.1-1.4-0.1-1.9-0.2C146.7,92.8,146.3,92.7,146.3,92.6 M149.3,89.3c0,0.2-1,0-1.1,0v-0.1
	c0.1-0.1,0.7,0,0.8,0C149.1,89.3,149.3,89.2,149.3,89.3 M149,89.8c0,0.1-0.9,0-1.2,0c0-0.1,0-0.1,0-0.1
	C148.1,89.7,149,89.8,149,89.8 M149.7,88.7c0,0.1-1.4,0.1-1.4,0c0-0.1,0.1-0.1,0.2-0.1C148.7,88.7,149.7,88.6,149.7,88.7
	 M143.6,111.1c0,0.1-0.5,0-0.8-0.2c-0.4-0.1-0.8-0.4-1.2-0.6c-0.2-0.1-1-0.5-1.4-0.8c-0.3-0.2-0.6-0.5-1-0.7c0,0,0,0,0,0
	c0.6,0.4,3.7,2,4.2,2.2C143.4,111,143.6,111,143.6,111.1 M148.1,86c-0.6,0-1.3,0-1.8,0c0-0.1,0.1-0.1,0.2-0.1
	C146.8,85.9,148.1,85.9,148.1,86 M141.7,75c-0.1,0.1-0.2,0.2-0.4,0.2c0-0.2,0.1-0.3,0.3-0.3c0.1-0.1,0.2-0.2,0.4-0.1
	C142,74.8,141.8,74.9,141.7,75 M143,74c-0.1,0.1-0.2,0.2-0.4,0.2c0-0.1,0.2-0.2,0.2-0.2c0.1-0.1,0.2-0.1,0.3-0.2c0,0,0,0,0,0
	C143.2,73.9,143.1,74,143,74 M143.5,74.2C143.5,74.2,143.6,74.2,143.5,74.2c-0.1,0.2-0.3,0.3-0.5,0.4
	C143,74.4,143.3,74.3,143.5,74.2 M142.1,75.4c-0.1,0.1-0.2,0.2-0.4,0.2c0-0.2,0.2-0.3,0.3-0.4c0.1-0.1,0.2-0.1,0.3-0.1
	C142.3,75.2,142.2,75.3,142.1,75.4 M141.4,78c0-0.2,0.1-0.5,0.2-0.7c0.1,0.1-0.1,0.8-0.1,0.9c0,0.1-0.2,1.4-0.3,1.6
	c0,0.2,0,1.1,0,1.2c0,0.1,0.1,0.3,0,0.3c0-0.1,0-0.1-0.1-0.2c-0.1-1,0-1.8,0-1.9C141.2,78.9,141.3,78.2,141.4,78 M143.8,74.6
	c0.2,0.1-0.3,0.4-0.4,0.4C143.4,74.8,143.6,74.7,143.8,74.6 M139.9,76.6C139.9,76.6,139.9,76.6,139.9,76.6
	C139.9,76.6,139.9,76.6,139.9,76.6L139.9,76.6z M142,76c0-0.1,0.1-0.1,0.1-0.2c0.1-0.1,0.3-0.3,0.5-0.2C142.5,75.8,142.3,76,142,76
	 M141.9,72.1c0-0.1,0.2-0.2,0.3-0.2c0,0,0,0,0,0C142.2,72.1,142.1,72.1,141.9,72.1 M144,75c0.1,0,0.1,0,0.1,0c0,0.1-0.2,0.2-0.3,0.2
	c-0.1,0.1-0.2,0.1-0.3,0.2C143.6,75.3,143.9,75.1,144,75 M142.5,73.3c-0.1-0.1,0.3-0.4,0.3-0.2C142.9,73.2,142.6,73.3,142.5,73.3
	 M141.4,71.2c0-0.1,0.2-0.2,0.4-0.2C141.8,71.2,141.6,71.3,141.4,71.2C141.4,71.3,141.4,71.2,141.4,71.2 M146.8,71.8
	C146.8,71.7,146.8,71.7,146.8,71.8c0.4-0.1,1.5-0.1,1.6,0c0,0.1-0.9,0.1-1.2,0.1C147,71.9,146.9,71.9,146.8,71.8 M144.6,82.6
	c0-0.1,0.1-0.1,0.1-0.1c0.3,0,0.7,0,1,0v0.1C145.6,82.6,144.8,82.7,144.6,82.6 M147.2,85.5c-0.3,0-1.2,0.1-1.2,0
	c0-0.1,1.1-0.2,1.1-0.1C147.1,85.4,147.2,85.5,147.2,85.5 M144.4,82.1c0-0.1,0.1-0.1,0.2-0.1c0.3,0,1.1,0,1.1,0.1
	C145.7,82.2,144.4,82.3,144.4,82.1 M145,83.6c0-0.1,1-0.1,1.2-0.2c0,0,0.1,0.1,0.1,0.1C146,83.6,145.2,83.7,145,83.6 M144.8,83.1
	c0.1-0.1,1-0.2,1.2-0.1c0,0,0,0.1,0,0.1C145.8,83.1,144.9,83.2,144.8,83.1 M145.7,85.1c0-0.2,1.2-0.2,1.6-0.1
	c-0.1,0.1-0.2,0.1-0.4,0.1C146.8,85,145.8,85.2,145.7,85.1 M145.3,84.1c0-0.1,1.1-0.2,1.6-0.1v0C146.8,84.1,145.3,84.2,145.3,84.1
	 M145.5,84.6c0.1-0.1,1-0.1,1.2-0.2c0,0,0,0.1,0,0.1C146.4,84.5,145.6,84.7,145.5,84.6 M149,110.7c-0.7,0-1.5-0.1-2-0.2v0
	c0,0,0,0,0,0c0.7,0,1.4,0.2,2.2,0.1c0.2,0,0.4,0,0.5,0c0.1,0,0.3,0,0.4,0.1C150.1,110.7,149.3,110.7,149,110.7 M146.3,110.3
	c-0.1,0.1-0.2,0-0.2,0c-0.2,0-1-0.2-1.1-0.3c-0.9-0.2-1.7-0.5-2.5-0.9v0c0,0,0,0,0,0c0.4,0.1,1.8,0.6,2.3,0.8
	C145.2,110,146.2,110.2,146.3,110.3 M146.4,72.2L146.4,72.2C146.4,72.2,146.5,72.2,146.4,72.2c0.3-0.1,1-0.1,1,0
	C147.5,72.4,146.5,72.3,146.4,72.2 M146.2,72.8L146.2,72.8c0.2-0.1,0.6-0.1,0.8-0.1v0.1C146.9,72.8,146.5,72.8,146.2,72.8
	 M146.7,97.9c-0.2,0.3,0,0-0.2,0.3c0,0.1-1.5-0.5-1.5-0.4c0,0,0,0.1,0.1,0.2c0.4,0.2,1.2,0.5,1.2,0.7c0,0,0,0.2-0.1,0.2
	c-0.1,0.1-1.6-0.8-1.7-0.7c0,0,0,0.1,0.2,0.3c0.2,0.1,1.3,0.6,1.3,0.8c0,0.1,0,0.1-0.1,0.2c0,0-1.9-1.1-1.9-1.1c0,0,0,0.1,0,0.1
	c0,0,1.7,1.1,1.7,1.3c0,0.1,0,0.1-0.1,0.1c0,0-2.1-1.4-2.1-1.3c-0.1,0.1,1.7,1.2,2,1.5l-0.2,0.2c-0.7-0.4-4.4-3.2-4.9-3.5
	c0.2-0.4,0.5-0.8,0.7-1C144.3,97.4,146.6,97.8,146.7,97.9 M139.9,104C139.9,104,139.9,104,139.9,104c1.3-0.1,1.4-0.7,1.4-0.9
	c-0.1-0.2-0.3-0.3-0.2-0.4c0-0.2,0.3-0.4,0.5-0.4c0.2,0,0.5,0.1,0.8,0.3c0.3,0.2,1.5,0.4,1.7,0.3c0.2-0.1,0.3-0.4,0.3-0.5
	c0-0.1-0.1-0.3,0-0.5c0-0.2,0.5-0.8,0.5-0.9c0.1-0.1,0.5,0,0.5-0.1c0.1-0.1,0-0.4,0-0.5c0.4-0.6,0.9-1.6,1.3-2.2
	c0,0.1,0.1,1.8,0,2.8c-0.1,1.5-0.3,2.1-0.8,2.8c-0.4,0.7-1.4,1.9-3,1.6C141.4,105.1,140.3,104.4,139.9,104 M140.8,102.5
	c-0.2-0.1-1.1-0.7-1.2-0.9c0.1-0.1,0.2-0.3,0.3-0.5c0.2,0.1,1.1,0.8,1.3,0.9C141.1,102.2,140.9,102.3,140.8,102.5 M139.2,99.9
	c0-0.1-0.2-0.3-0.2-0.4c0,0,0,0,0,0c0.3,0.1,3.4,2.5,3.7,2.7c0.1,0.1,0.2,0.1,0.2,0.2c-0.2,0-0.8-0.2-0.9-0.3
	C141.8,102.1,139.4,100.3,139.2,99.9 M139,101.7c0.3,0.2,0.6,0.4,0.9,0.7c0.3,0.2,0.6,0.4,0.9,0.7c0.1,0.1,0.3,0.2,0.3,0.2
	c0,0.1-0.2,0.3-0.4,0.4c-0.2,0.1-0.7,0.3-1.2,0c-0.1-0.1-0.9-0.7-1-1c0,0,0.1,0,0.2,0.1c0.1,0.1,0.3,0.2,0.4,0.2
	c0-0.1-0.1-0.1-0.1-0.2c-0.2-0.2-0.3-0.3-0.5-0.5c0-0.1,0-0.2,0-0.2c0,0,0.1,0,0.2,0.1c0.2,0.1,0.4,0.2,0.6,0.2
	c-0.2-0.2-0.4-0.5-0.6-0.6C138.6,101.3,138.8,101.5,139,101.7 M155.1,97.6c1.4-0.4,3.2-1,4.9-2c0.2,0.3,0.4,0.5,0.6,0.9
	c-1.2,0.9-3.6,2.7-4.8,3.6c-0.1-0.1-0.1-0.1-0.1-0.2c0-0.1,1.2-0.9,1.3-1c0.1-0.1,0.2-0.3,0.2-0.3c0-0.1-1.6,1.2-1.7,1.1
	c-0.1-0.1-0.2-0.2-0.2-0.2c0-0.1,0.6-0.5,1.3-1.1c0.2-0.2,0.1-0.2,0.1-0.2c0,0-1.5,1-1.5,1c-0.1-0.1-0.2-0.2-0.2-0.3
	c0-0.1,0.8-0.6,1-0.7c0.2-0.2,0.3-0.3,0.2-0.3c0,0-1.2,0.7-1.3,0.8c-0.1,0-0.2-0.2-0.2-0.2c0-0.1,1.3-0.7,1.2-0.8
	c0-0.1-1.3,0.6-1.4,0.5c-0.1-0.1-0.1-0.2-0.2-0.3C154.4,97.7,154.9,97.6,155.1,97.6 M161.6,97.9c-1.2,0.9-3.6,2.6-4.8,3.5
	c-0.1-0.1-0.2-0.2-0.2-0.3c0-0.1,1.7-1.2,1.7-1.2l-0.1-0.1c0,0-1.7,1.2-1.8,1.2c-0.1,0-0.1-0.1-0.1-0.2c1.2-0.9,3.6-2.6,4.8-3.5
	C161.3,97.5,161.4,97.7,161.6,97.9 M160.9,96.6c0,0,0.1,0,0.2,0c-0.1,0.1-3.8,2.8-5,3.7c-0.1,0.1-0.2,0.2-0.3,0.2
	c-0.1-0.2,0.1-0.3,0.2-0.4C156.2,100,160.7,96.7,160.9,96.6 M159.7,96.1c-0.1,0.1-0.2,0.2-0.4,0.2c0-0.1,0.2-0.2,0.2-0.2
	c0.1-0.1,0.2-0.1,0.3-0.2h0C159.9,96,159.8,96.1,159.7,96.1 M160.3,96.3c0.4,0.1-0.4,0.6-0.7,0.6C159.7,96.6,160,96.4,160.3,96.3
	 M161.1,97.6c0.1,0,0.2,0,0.2,0.1c0.1,0.2-0.3,0.3-0.4,0.4c-0.2,0.1-0.3,0.2-0.5,0.3C160.5,98,160.9,97.7,161.1,97.6 M140.8,96.7
	c0-0.4,0.7,0.2,0.8,0.5C141.2,97.2,141,96.9,140.8,96.7 M141.4,96.3c0.1,0.1,0.3,0.1,0.3,0.3c-0.1,0-0.2-0.1-0.3-0.1
	c-0.1-0.1-0.2-0.1-0.3-0.2c0,0,0,0,0,0C141.2,96.2,141.3,96.3,141.4,96.3 M146.1,64.1c1.5-0.8,2.7-1.1,4.2-1.1c1,0,2,0.1,3,0.5
	c2.2,0.9,4.3,3.4,3.8,6.5c0-0.2-0.1-1.6-0.4-2.7c-0.2-0.8-1.5-2.7-3-3.5c-0.6-0.3-1.8-0.6-2.8-0.7c-1-0.1-2.8,0.2-3.4,0.5
	c-0.6,0.3-0.8,0.4-1.1,0.5c-0.1,0-0.3,0.2-0.3,0.1C145.9,64.2,146.1,64.1,146.1,64.1 M146.7,64.4c-0.1,0-0.2-0.1-0.2-0.2
	c0-0.1,0.2-0.2,0.4-0.2c0.2,0,0.4,0.4,0.6,0.7c0.3,0.6,0.4,1.1,0.4,1.3c0,0.2,0,0.2-0.1,0.2c-0.1,0-0.2-0.3-0.2-0.4
	C147.4,65.1,146.8,64.5,146.7,64.4 M151.8,70.8c0,0.3-0.3,0.6-0.6,0.6c-0.4,0-0.6-0.3-0.6-0.6c0-0.3,0.3-0.6,0.6-0.6
	C151.5,70.2,151.8,70.5,151.8,70.8 M152.7,75.9c0.3,0.3,0.4,0.7,0.4,1.2c0,0.6-0.2,1.2-0.6,1.6c-0.5,0.4-1.1,0.7-1.9,0.7
	c-1.5,0-2.6-1-2.6-2.3c0-0.6,0.5-1.4,0.8-1.5c0.2-0.1,0.6-0.4,0.8-0.2c0.1,0.1-0.3,0.3-0.3,0.3s-0.7,0.5-0.8,1.4
	c0,1,0.8,1.7,2.1,1.7c1.4,0,2.2-0.8,2.2-1.7c0-0.4-0.2-0.9-0.5-1.1c-0.2-0.2-0.7-0.4-0.5-0.5C151.9,75.3,152.4,75.6,152.7,75.9
	 M152.1,70.8c0,0.5-0.4,0.9-0.9,0.9c-0.5,0-0.9-0.4-0.9-0.9c0-0.5,0.4-0.9,0.9-0.9C151.8,70,152.1,70.4,152.1,70.8 M151.6,70.8
	c0,0.2-0.2,0.4-0.4,0.4c-0.2,0-0.4-0.2-0.4-0.4c0-0.2,0.2-0.4,0.4-0.4C151.4,70.4,151.6,70.6,151.6,70.8 M150.8,79.9
	c0,0.1-0.1,0.2-0.2,0.2c-0.1,0-0.2-0.1-0.2-0.2c0-0.1,0.1-0.2,0.2-0.2C150.7,79.7,150.8,79.7,150.8,79.9 M146.5,75.8
	c0.1,0,0,0.2,0,0.2c0,0.3-0.1,0.6,0,0.9c0,0.4,0.1,0.7,0.1,1.1c0,0.4,0,0.7,0.1,1c0.1,0.4,0.2,0.7,0.2,0.8c-0.1,0-0.3-0.5-0.3-0.7
	c0-0.2-0.2-1.4-0.2-1.9c0-0.2,0-0.3,0-0.4c-0.1,0-0.4,0-0.5,0.1c0,0.2,0,0.3,0.1,0.6c0.1,0.7,0,1.8,0,1.8c0,0,0,0.4-0.1,0.4
	c-0.1,0-0.1-0.3,0-0.4c0-0.2,0-1.1,0-1.4c0-0.5-0.2-1.6-0.3-1.6c0-0.1-0.1-0.4,0-0.4c0.1,0,0.1,0.3,0.2,0.3c0.3,0,0.6-0.1,0.7-0.1
	C146.5,76.2,146.4,75.8,146.5,75.8 M146.3,76.4c0.1,0,0.1,0.1,0.1,0.2c0,0.2-0.6,0.2-0.6,0.2c0,0-0.1-0.1-0.1-0.2
	C145.8,76.4,146.2,76.4,146.3,76.4 M146.8,80.7c0,0.2-0.2,0.4-0.5,0.4c-0.3,0-0.5-0.2-0.5-0.4c0-0.2,0.2-0.4,0.5-0.4
	C146.6,80.3,146.8,80.5,146.8,80.7 M147,80.8c0,0.4-0.3,0.6-0.7,0.6c-0.4,0-0.7-0.3-0.7-0.6s0.3-0.6,0.7-0.6
	C146.7,80.1,147,80.4,147,80.8 M146.8,75.2c0,0-0.2,1-0.1,2.9c0,0.6,0.3,1.5,0.4,1.8c0.1,0.3,0.4,1.2,0.4,1.2c0,0.1-0.9,0.7-1.2,0.9
	c-0.4-0.3-0.8-0.6-1.2-0.9c0-0.4,0.2-0.6,0.3-1.2c0.2-1.3,0-2.4-0.1-2.9s-0.3-1.2-0.5-1.7C145.5,75.4,146.2,75.2,146.8,75.2
	 M154.5,76.2c0.1,0,0.4,0.1,0.7,0.1c0.1-0.1,0.1-0.4,0.2-0.3c0.1,0,0,0.3,0,0.4c0,0.1-0.3,1.1-0.3,1.6c0,0.3,0,1.2,0,1.4
	c0,0.2,0.1,0.4,0,0.4c-0.1,0-0.1-0.4-0.1-0.4c0,0-0.1-1.1,0-1.8c0.1-0.3,0.1-0.4,0.1-0.6c-0.1-0.1-0.4-0.1-0.5-0.1
	c-0.1,0.1,0,0.2,0,0.4c0,0.5-0.2,1.7-0.2,1.9c0,0.2-0.2,0.7-0.3,0.7c-0.1-0.1,0.1-0.4,0.2-0.8c0.1-0.4,0.1-0.7,0.1-1
	c0-0.4,0.1-0.8,0.1-1.1c0-0.4,0-0.6,0-0.9c0-0.1-0.1-0.2,0-0.2C154.5,75.8,154.4,76.2,154.5,76.2 M155.2,76.6c0,0.1-0.1,0.2-0.1,0.2
	c0,0-0.6,0-0.6-0.2c0-0.1,0-0.2,0.1-0.2C154.7,76.4,155.2,76.4,155.2,76.6 M154.6,80.3c0.3,0,0.5,0.2,0.5,0.4c0,0.2-0.2,0.4-0.5,0.4
	c-0.3,0-0.5-0.2-0.5-0.4C154.2,80.5,154.4,80.3,154.6,80.3 M154.6,80.1c0.4,0,0.7,0.3,0.7,0.6s-0.3,0.6-0.7,0.6
	c-0.4,0-0.7-0.3-0.7-0.6S154.2,80.1,154.6,80.1 M154.1,75.2c0.6,0,1.3,0.1,1.9,0.2c-0.2,0.5-0.5,1.4-0.6,1.7c-0.1,0.6-0.1,2.1,0,2.8
	c0,0.4,0.2,0.8,0.3,1.2c-0.4,0.3-0.8,0.7-1.2,0.9c-0.3-0.2-1.2-0.8-1.2-0.9c0-0.1,0.4-1,0.4-1.2c0.1-0.3,0.4-1.2,0.4-1.8
	C154.3,76.2,154.1,75.2,154.1,75.2 M146.7,91.4c0.1,0,0.7,0.1,0.7,0.1c0,0,0.2-0.2,0.1-0.3c-0.1-0.1-0.7-0.2-0.8-0.2
	c-0.2,0-0.2,0.2-0.2,0.3C146.5,91.4,146.6,91.4,146.7,91.4 M146.7,91.9c0.1,0,0.5,0.1,0.6,0.1c0.1,0,0.1-0.1,0.2-0.2
	c0-0.1-0.1-0.1-0.1-0.2c0,0-0.6-0.1-0.7-0.1c-0.1,0-0.2,0-0.2,0.1c0,0,0,0.1,0,0.2C146.3,91.9,146.7,91.9,146.7,91.9 M155.1,71.8
	c-0.1,0.1,0,0.3,0,0.4c0,0.4,0.1,0.7,0.2,1c0,0.1,0.1,0.2,0.1,0.3c0,0.1,0,0.2,0.1,0.3c0.2-0.1,0.2-0.4,0.3-0.5
	c0.1-0.2,0.7-1.4,0.9-3.5c0-0.6-0.1-2.2-0.6-3c-0.2-0.3-0.6-1.1-1.5-1.8c-1.1-0.9-2.7-1.4-4.4-1.4c-0.6,0-1.9,0.2-2.7,0.6
	c0.2,0.4,0.4,0.9,0.5,1.1c0,0.1,0.2,0.6,0.2,0.9c0.2-0.1,0.4-0.2,0.4-0.2c0.1-0.2,0.1-0.6,0.1-0.8c0-0.4-0.3-0.6-0.4-0.8
	c-0.1-0.2,0.2-0.5,0.5-0.5c0.3,0,0.4,0.4,0.5,0.8c0.1,0.4-0.1,0.8-0.1,1.1c0.1,0,0.3-0.1,0.4-0.1c0,0,0.3-0.6,0.4-0.8
	c0.1-0.3-0.1-0.6-0.2-0.9c-0.1-0.3,0.4-0.4,0.6-0.3c0.2,0.1,0.3,0.5,0.2,0.9c0,0.4-0.3,0.8-0.4,1.1h0c0.1,0,0.2,0,0.4,0h0.1
	c0.2-0.1,0.4-0.5,0.5-0.7c0.2-0.3,0-0.6,0-0.9c0-0.3,0.4-0.3,0.7-0.2c0.2,0.1,0.2,0.5,0,0.9c-0.1,0.3-0.4,0.7-0.6,0.9
	c0.1,0,0.3,0,0.4,0.1c0.2-0.1,0.5-0.4,0.6-0.6c0.2-0.3,0.1-0.6,0.1-0.9c0-0.3,0.5-0.2,0.7-0.1c0.2,0.2,0.1,0.6-0.1,0.9
	c-0.2,0.3-0.6,0.6-0.8,0.8c0.1,0,0.3,0.1,0.4,0.2c0.2-0.1,0.5-0.3,0.7-0.5c0.3-0.2,0.2-0.6,0.3-0.8c0.1-0.2,0.5-0.1,0.7,0.1
	c0.1,0.2-0.1,0.6-0.3,0.9c-0.2,0.3-0.7,0.4-1,0.6c0.1,0.1,0.2,0.1,0.3,0.2c0.2,0,0.7-0.2,0.9-0.3c0.3-0.2,0.4-0.5,0.5-0.7
	c0.1-0.2,0.5,0,0.6,0.2c0.1,0.2-0.2,0.5-0.5,0.8c-0.3,0.2-0.8,0.3-1.1,0.4c0.1,0.1,0.2,0.2,0.3,0.3h0c0.2,0,0.6-0.1,0.8-0.1
	c0.3-0.1,0.5-0.4,0.7-0.6c0.2-0.2,0.5,0.1,0.6,0.4c0,0.2-0.3,0.5-0.7,0.6c-0.3,0.1-0.7,0.1-1.1,0.1c0.1,0.1,0.2,0.2,0.3,0.4
	c0.2,0,0.4,0,0.6,0c0.4,0,0.6-0.3,0.8-0.4c0.2-0.1,0.5,0.2,0.5,0.5c0,0.2-0.4,0.4-0.8,0.5c-0.3,0-0.6,0-0.8-0.1
	c0.1,0.1,0.1,0.3,0.2,0.5c0.1,0,0.3,0.1,0.5,0.1c0.3,0,0.5-0.2,0.7-0.3c0.2-0.1,0.4,0.3,0.4,0.5c0,0.2-0.4,0.3-0.7,0.3
	c-0.2,0-0.5-0.1-0.7-0.2c0,0.1,0.1,0.3,0.1,0.4c0.1,0,0.2,0.1,0.3,0.1c0.3,0.1,0.5-0.1,0.8-0.1c0.2,0,0.3,0.3,0.2,0.5
	c-0.1,0.2-0.4,0.2-0.8,0.1c-0.2,0-0.3-0.1-0.5-0.2l0,0c0,0.2,0,0.3,0,0.4c0.1,0,0.1,0.1,0.2,0.1c0.3,0.1,0.6,0,0.8,0
	c0.2,0,0.3,0.4,0.1,0.6c-0.1,0.2-0.5,0.1-0.8,0c-0.1,0-0.2-0.1-0.3-0.2c0,0.2,0,0.2,0,0.3c0,0,0,0,0,0c0.2,0.2,0.5,0.1,0.7,0.1
	c0.2,0,0.2,0.4,0.1,0.5c-0.1,0.1-0.5,0-0.8-0.1C155.2,71.9,155.1,71.9,155.1,71.8 M151,87.9h-0.9v-1.5h0.9V87.9z M150.8,87.7h-0.4
	v-0.9h0.4V87.7z M151.3,88.1h-1.5v-1.9h1.5V88.1z M149.6,88.3h1.9v-0.4c0.8-0.1,1.7-0.1,2.6-0.1c0.2,0,0.5,0,0.7,0h0
	c0,0.1-0.2,0.1-0.3,0.1c-0.7,0.1-2.4,0.1-2.4,0.3c0.8,0.1,2.8-0.1,2.8,0c0,0.1-0.3,0.1-0.4,0.1c-0.4,0.1-1,0.1-1.4,0.2v0.1
	c0.5,0,1.8-0.2,1.8-0.2c0.1,0,0.1,0.1,0.1,0.2c0,0.1-2,0.4-2.1,0.4c-0.1,0-0.2,0-0.1,0.1c0.7,0,1.4,0,2.1-0.1c0.1,0,0.4,0,0.4,0.1
	c0,0.2-1.9,0.4-2.6,0.5v0.1c0.8-0.1,1.7-0.2,2.5-0.3c0.1,0,0.3-0.1,0.3,0c0,0.1-0.2,0.2-0.3,0.2c-0.7,0.2-1.5,0.3-2.4,0.4
	c-0.3,0-0.6,0.1-0.9,0.1c-1.4,0.2-3,0.1-4.4,0c-0.6-0.1-1.1-0.2-1.6-0.3c-0.2,0-0.4-0.1-0.6-0.2c0-0.1,0.3-0.5,0.4-0.6
	c0.1,0,0.5,0.2,0.5,0c0-0.1-0.4-0.1-0.5-0.2c0-0.1,0.1-0.2,0.1-0.3c0.1,0,0.2,0.1,0.4,0c0-0.1-0.2-0.1-0.3-0.1
	c0.1-0.1,0.3-0.6,0.3-0.6c0.9,0,1.8,0,2.7,0c0.2,0,0.4,0,0.6,0V88.3z M151.4,86.5c0,0,1,0,1.3,0c0.4,0,1,0,1.3,0c0.2,0,0.6,0,0.8,0
	c0.1,0,0.4,0.1,0.2,0.3c-0.1,0.1-0.6,0.1-0.8,0.1c-0.4,0-0.8,0-1.1,0.1c0,0.2,0.2,0.2,0.4,0.2c0.2,0,0.4,0,0.7,0c0.3,0,0.5,0,0.8,0
	c0.1,0.3-0.1,0.3,0,0.4c0,0-0.3,0-0.3,0c-1,0-2.2,0-3.2,0.1V86.5 M165,108.4c0,0,2.3-3,2.9-6.9c0.6-3.9-0.3-6.1-0.3-6.3
	c0,0-0.1-0.3,0-0.3c0.1,0,0.2,0.3,0.2,0.3c0,0.1,0.9,2.4,0.3,6.3c-0.6,3.9-2.9,6.9-2.9,6.9c0,0-0.2,0.4-0.3,0.3
	C164.9,108.7,165,108.5,165,108.4 M136.1,108.8c-0.1,0.1-0.2-0.2-0.3-0.2c0,0-2.3-3-2.9-6.9s0.3-6.1,0.3-6.3c0-0.1,0.1-0.4,0.2-0.3
	c0.1,0,0,0.3,0,0.3c0,0.1-0.9,2.4-0.3,6.3s2.9,6.9,2.9,6.9C136,108.7,136.2,108.8,136.1,108.8 M136,89.5L136,89.5
	c-0.1-0.1-0.2,0-0.2,0l-0.2,0.3c0,0.1-0.1,0.1-0.2,0l0,0c0,0-0.1-0.1,0-0.2l0.8-1.1c0-0.1,0.1-0.1,0.2,0l0.1,0.1
	c0.1,0,0.1,0.1,0.2,0.2c0,0,0.2,0.3,0,0.5C136.4,89.6,136.2,89.7,136,89.5 M136.4,88.9L136.4,88.9c-0.1-0.1-0.1,0-0.2,0l-0.2,0.2
	c0,0.1,0,0.1,0,0.1c0,0,0.1,0,0.2,0.1c0,0,0.1,0,0.2-0.1C136.5,89.1,136.5,89,136.4,88.9 M136.7,90.7c-0.1,0-0.2,0-0.3-0.1
	c-0.1-0.1-0.2-0.2-0.2-0.3c0-0.2,0.1-0.3,0.3-0.6c0.2-0.3,0.4-0.4,0.5-0.4c0.1,0,0.2,0,0.3,0.1c0.1,0.1,0.2,0.2,0.2,0.3
	c0,0.2-0.1,0.3-0.3,0.6C136.9,90.5,136.8,90.7,136.7,90.7 M137.3,89.6c0,0,0-0.1-0.1-0.1c0,0-0.1,0-0.1,0c-0.1,0-0.2,0.1-0.4,0.4
	c-0.2,0.2-0.3,0.4-0.3,0.4c0,0,0,0.1,0.1,0.1c0,0,0.1,0,0.1,0c0.1,0,0.2-0.2,0.4-0.4C137.2,89.9,137.3,89.7,137.3,89.6 M137.5,91.4
	c-0.1,0-0.2,0-0.3-0.1c-0.1-0.1-0.2-0.2-0.2-0.3c0-0.1,0-0.2,0.1-0.3l0.7-0.9c0-0.1,0.1-0.1,0.2,0l0,0c0.1,0,0.1,0.1,0,0.2l-0.6,0.8
	c0,0-0.1,0.1-0.1,0.2c0,0,0,0.1,0,0.1c0.1,0,0.2,0,0.2,0l0.7-0.9c0,0,0.1-0.1,0.2,0l0,0c0,0,0.1,0.1,0,0.2l-0.7,0.9
	C137.7,91.3,137.6,91.4,137.5,91.4 M138.3,92.2c0,0-0.1-0.1,0-0.2l0.2-0.4c0-0.1,0-0.1,0-0.2c0,0-0.1,0-0.1,0.1l-0.3,0.3
	c0,0.1-0.1,0.1-0.2,0l0,0c0,0-0.1-0.1,0-0.2l0.8-1.1c0,0,0.1-0.1,0.2,0l0.1,0.1c0,0,0.1,0.1,0.2,0.2c0,0,0.2,0.3,0,0.5
	c-0.1,0.2-0.2,0.2-0.4,0.2l-0.2,0.6C138.4,92.2,138.4,92.2,138.3,92.2L138.3,92.2z M138.9,90.9L138.9,90.9c-0.1-0.1-0.2,0-0.2,0
	l-0.2,0.2c0,0,0,0.1,0,0.1c0,0,0.1,0.1,0.2,0.1c0,0,0.1,0,0.2-0.1C139,91.1,139,91,138.9,90.9 M139.1,92.7c-0.1,0-0.1-0.1,0-0.2
	l0.8-1.1c0-0.1,0.1-0.1,0.2,0l0,0c0.1,0,0.1,0.1,0,0.2l-0.7,0.9c0,0,0,0.1,0,0.2l0.2,0.1c0,0,0.1,0.1,0,0.2c0,0.1-0.1,0.1-0.2,0
	L139.1,92.7z M140.3,93.6c-0.1,0-0.1-0.1-0.1-0.2l0-0.1c0-0.1,0-0.1-0.1-0.2l-0.1-0.1c0,0-0.1,0-0.2,0l-0.1,0.1c0,0-0.1,0.1-0.2,0
	l0,0c-0.1,0-0.1-0.1,0-0.1l1-1c0,0,0.1,0,0.2,0l0,0c0.1,0,0.1,0.1,0.1,0.2l-0.5,1.3C140.5,93.6,140.4,93.6,140.3,93.6L140.3,93.6z
	 M140.6,92.4C140.7,92.4,140.6,92.4,140.6,92.4l-0.4,0.3c0,0,0,0.1,0,0.1l0,0c0,0,0.1,0,0.1,0L140.6,92.4z M141.6,93.6L141.6,93.6
	c-0.1,0-0.2,0-0.2,0l-0.2,0.3c0,0.1-0.1,0.1-0.2,0l0,0c-0.1,0-0.1-0.1,0-0.2l0.7-1.2c0-0.1,0.1-0.1,0.2,0l0.1,0.1
	c0.1,0,0.1,0.1,0.2,0.1c0,0,0.2,0.2,0,0.5C142,93.7,141.9,93.7,141.6,93.6 M142,92.9L142,92.9c-0.1,0-0.1,0-0.2,0l-0.1,0.3
	c0,0.1,0,0.1,0,0.1c0,0,0.1,0,0.2,0c0,0,0.1,0,0.2-0.1C142.1,93.1,142.1,93,142,92.9 M142.4,94.8c-0.1,0-0.1-0.1-0.1-0.2l0-0.1
	c0-0.1,0-0.1-0.1-0.2l-0.1-0.1c-0.1,0-0.1,0-0.2,0l-0.1,0.1c0,0-0.1,0.1-0.2,0l0,0c-0.1,0-0.1-0.1,0-0.1l0.9-1.1c0,0,0.1-0.1,0.2,0
	l0,0c0.1,0,0.1,0.1,0.1,0.2l-0.4,1.4C142.6,94.8,142.5,94.8,142.4,94.8L142.4,94.8z M142.7,93.6C142.7,93.6,142.7,93.6,142.7,93.6
	l-0.3,0.3c0,0.1,0,0.1,0,0.1l0,0c0.1,0,0.1,0,0.1-0.1L142.7,93.6z M143.8,93.9c-0.1,0-0.1,0-0.2,0.1l-0.5,1c0,0.1-0.1,0.1-0.2,0.1
	l0,0c-0.1,0-0.1-0.1-0.1-0.2l0.5-1c0-0.1,0-0.1-0.1-0.2l0,0c-0.1,0-0.1-0.1-0.1-0.2c0-0.1,0.1-0.1,0.2-0.1l0.5,0.2
	c0.1,0,0.1,0.1,0.1,0.2C143.9,93.9,143.9,93.9,143.8,93.9L143.8,93.9z M144.2,95.6c-0.1,0-0.1-0.1-0.1-0.2l0-0.5
	c0-0.1,0-0.1-0.1-0.1c0,0-0.1,0-0.1,0.1l-0.2,0.4c0,0.1-0.1,0.1-0.2,0.1l0,0c-0.1,0-0.1-0.1-0.1-0.2l0.5-1.3c0-0.1,0.1-0.1,0.2-0.1
	l0.2,0.1c0.1,0,0.1,0.1,0.2,0.1c0,0,0.2,0.2,0.1,0.5c-0.1,0.2-0.2,0.3-0.3,0.3l0,0.6C144.3,95.6,144.3,95.6,144.2,95.6L144.2,95.6z
	 M144.4,94.2L144.4,94.2c-0.1,0-0.2,0-0.2,0l-0.1,0.2c0,0.1,0,0.1,0,0.1c0,0,0.1,0,0.2,0c0,0,0.1,0,0.1-0.1
	C144.5,94.3,144.5,94.2,144.4,94.2 M144.7,95.7c-0.1,0-0.1-0.1-0.1-0.1l0.5-1.3c0-0.1,0.1-0.1,0.2-0.1l0,0c0.1,0,0.1,0.1,0.1,0.1
	l-0.5,1.3C144.8,95.7,144.7,95.8,144.7,95.7L144.7,95.7z M145.2,95.9c-0.1,0-0.1-0.1-0.1-0.1l0.4-1.3c0-0.1,0.1-0.1,0.1-0.1l0.4,0.1
	c0.1,0,0.1,0.1,0.1,0.1c0,0.1-0.1,0.1-0.1,0.1l-0.2-0.1c-0.1,0-0.1,0-0.1,0.1l-0.1,0.2c0,0.1,0,0.1,0.1,0.1l0.1,0
	c0.1,0,0.1,0.1,0.1,0.1c0,0.1-0.1,0.1-0.1,0.1l-0.1,0c-0.1,0-0.1,0-0.1,0.1l-0.1,0.2c0,0.1,0,0.1,0.1,0.1l0.2,0.1
	c0.1,0,0.1,0.1,0.1,0.1c0,0.1-0.1,0.1-0.1,0.1L145.2,95.9z M146.5,96.3c-0.1,0-0.1-0.1-0.1-0.1l0.3-1.3c0-0.1,0.1-0.1,0.1-0.1l0,0
	c0.1,0,0.1,0.1,0.1,0.1l-0.3,1.1c0,0.1,0,0.1,0.1,0.1l0.2,0c0.1,0,0.1,0.1,0.1,0.1c0,0.1-0.1,0.1-0.1,0.1L146.5,96.3z M147.4,96.5
	c-0.1,0-0.1-0.1-0.1-0.1l0.2-1.4c0-0.1,0.1-0.1,0.1-0.1l0.4,0.1c0.1,0,0.1,0.1,0.1,0.1c0,0.1-0.1,0.1-0.1,0.1l-0.2,0
	c-0.1,0-0.1,0-0.1,0.1l0,0.2c0,0.1,0,0.1,0.1,0.1l0.1,0c0.1,0,0.1,0.1,0.1,0.1c0,0.1-0.1,0.1-0.1,0.1l-0.1,0c-0.1,0-0.1,0-0.1,0.1
	l0,0.2c0,0.1,0,0.1,0.1,0.1l0.2,0c0.1,0,0.1,0.1,0.1,0.1c0,0.1-0.1,0.1-0.1,0.1L147.4,96.5z M148.9,96.6c-0.1,0.1-0.2,0.1-0.3,0.1
	c-0.1,0-0.2-0.1-0.3-0.1c-0.1-0.1-0.1-0.2-0.1-0.4l0.1,0c0.1,0,0.1,0.1,0.1,0.1c0,0,0,0,0,0.1c0,0,0.1,0.1,0.1,0.1
	c0.1,0,0.1,0,0.1,0c0,0,0.1-0.1,0.1-0.2c0-0.2,0-0.2-0.1-0.3l-0.1,0c-0.1,0-0.1-0.1-0.2-0.1c0,0-0.1-0.1-0.1-0.4
	c0-0.1,0.1-0.3,0.2-0.3c0.1,0,0.2-0.1,0.3-0.1c0.1,0,0.2,0.1,0.3,0.1c0.1,0.1,0.1,0.2,0.1,0.4l-0.1,0c-0.1,0-0.1-0.1-0.1-0.1
	c0,0,0,0,0-0.1c0,0-0.1-0.1-0.1-0.1c-0.1,0-0.1,0-0.1,0c0,0-0.1,0.1-0.1,0.2c0,0.1,0,0.2,0.1,0.2l0.1,0c0.1,0,0.1,0.1,0.2,0.1
	c0,0,0.1,0.1,0.1,0.4C149,96.4,148.9,96.6,148.9,96.6 M150.3,96.7c-0.1,0.1-0.2,0.1-0.3,0.1c-0.1,0-0.2,0-0.3-0.1
	c-0.1-0.1-0.1-0.2-0.1-0.3h0.1c0.1,0,0.1,0.1,0.1,0.1c0,0,0,0,0,0.1c0,0,0.1,0,0.1,0c0.1,0,0.1,0,0.1,0c0,0,0-0.1,0-0.2
	c0-0.2,0-0.2-0.1-0.3l-0.1,0c-0.1,0-0.2-0.1-0.2-0.1c0,0-0.1-0.1-0.1-0.3c0-0.1,0-0.3,0.1-0.3c0.1-0.1,0.2-0.1,0.3-0.1
	c0.1,0,0.2,0,0.3,0.1c0.1,0.1,0.1,0.2,0.1,0.4l-0.1,0c-0.1,0-0.1-0.1-0.1-0.1c0,0,0,0,0-0.1c0,0-0.1,0-0.1,0s-0.1,0-0.1,0
	c0,0,0,0.1,0,0.2c0,0.1,0,0.2,0.1,0.2l0.1,0c0.1,0,0.1,0.1,0.2,0.1c0,0,0.1,0.1,0.1,0.4C150.4,96.5,150.4,96.6,150.3,96.7
	 M151.4,96.6c-0.1,0.1-0.2,0.1-0.3,0.1c-0.1,0-0.2,0-0.3-0.1c-0.1-0.1-0.1-0.3-0.2-0.7c0-0.4,0-0.6,0.1-0.7c0.1-0.1,0.2-0.2,0.3-0.2
	c0.1,0,0.2,0,0.3,0.1c0.1,0.1,0.1,0.2,0.1,0.3l-0.1,0c-0.1,0-0.1,0-0.1-0.1c0,0,0,0,0,0c0,0-0.1-0.1-0.1-0.1c-0.1,0-0.1,0-0.1,0.1
	c0,0.1,0,0.2,0,0.5c0,0.3,0,0.5,0.1,0.5c0,0,0.1,0.1,0.1,0c0.1,0,0.1,0,0.1-0.1c0,0,0-0.1,0-0.2l0.3,0
	C151.5,96.4,151.5,96.6,151.4,96.6 M151.9,96.7c-0.1,0-0.1,0-0.1-0.1l-0.1-1.4c0-0.1,0-0.1,0.1-0.1h0c0.1,0,0.1,0,0.1,0.1l0.1,1.4
	C152.1,96.6,152,96.7,151.9,96.7L151.9,96.7z M152.5,96.6c-0.1,0-0.1,0-0.1-0.1l-0.2-1.4c0-0.1,0-0.1,0.1-0.1l0.4-0.1
	c0.1,0,0.1,0,0.1,0.1c0,0.1,0,0.1-0.1,0.1l-0.2,0c-0.1,0-0.1,0.1-0.1,0.1l0,0.2c0,0.1,0.1,0.1,0.1,0.1l0.1,0c0.1,0,0.1,0,0.1,0.1
	c0,0.1,0,0.1-0.1,0.1l-0.1,0c-0.1,0-0.1,0.1-0.1,0.1l0,0.2c0,0.1,0.1,0.1,0.1,0.1l0.2,0c0.1,0,0.1,0,0.1,0.1c0,0.1,0,0.1-0.1,0.1
	L152.5,96.6z M154,96.4c-0.1,0-0.1,0-0.2-0.1l-0.4-0.7c0-0.1-0.1,0,0,0l0.1,0.7c0,0.1,0,0.1-0.1,0.1h0c-0.1,0-0.1,0-0.1-0.1L153,95
	c0-0.1,0-0.1,0.1-0.1c0.1,0,0.1,0,0.2,0.1l0.4,0.7c0,0.1,0.1,0,0,0l-0.1-0.7c0-0.1,0-0.1,0.1-0.1l0,0c0.1,0,0.1,0,0.1,0.1l0.3,1.3
	C154.1,96.3,154.1,96.3,154,96.4 M155.1,96c0,0.1-0.1,0.1-0.2,0.2c-0.1,0-0.3,0-0.3,0c-0.1-0.1-0.2-0.3-0.3-0.6
	c-0.1-0.4-0.1-0.5-0.1-0.7c0-0.1,0.1-0.2,0.3-0.2c0.1,0,0.2,0,0.3,0c0.1,0,0.2,0.2,0.2,0.3l-0.1,0c-0.1,0-0.1,0-0.2-0.1c0,0,0,0,0,0
	c0,0-0.1,0-0.1,0c-0.1,0-0.1,0.1-0.1,0.1c0,0.1,0,0.2,0.1,0.5c0.1,0.3,0.1,0.4,0.2,0.5c0,0,0.1,0,0.1,0c0.1,0,0.1,0,0.1-0.1
	c0,0,0-0.1,0-0.2l0.2-0.1C155.2,95.8,155.2,95.9,155.1,96 M155.6,95.9c-0.1,0-0.1,0-0.1-0.1l-0.4-1.3c0-0.1,0-0.1,0.1-0.1l0.4-0.1
	c0.1,0,0.1,0,0.1,0.1c0,0.1,0,0.1-0.1,0.1l-0.2,0.1c-0.1,0-0.1,0.1-0.1,0.1l0.1,0.2c0,0.1,0.1,0.1,0.1,0.1l0.1,0
	c0.1,0,0.1,0,0.1,0.1c0,0.1,0,0.1-0.1,0.1l-0.1,0c-0.1,0-0.1,0.1-0.1,0.1l0.1,0.2c0,0.1,0.1,0.1,0.1,0.1l0.2-0.1
	c0.1,0,0.1,0,0.1,0.1c0,0.1,0,0.1-0.1,0.1L155.6,95.9z M157,95.3c0,0.1-0.1,0.2-0.3,0.2c-0.1,0-0.2,0.1-0.3,0
	c-0.1,0-0.2-0.1-0.2-0.3l0.1-0.1c0.1,0,0.1,0,0.2,0.1c0,0,0,0,0.1,0c0,0,0.1,0,0.1,0c0.1,0,0.1,0,0.1-0.1c0,0,0-0.1,0-0.2
	c-0.1-0.2-0.1-0.2-0.2-0.2l-0.1,0c-0.1,0-0.2,0-0.2,0c0,0-0.2,0-0.2-0.3c0-0.1-0.1-0.3,0-0.4c0-0.1,0.1-0.1,0.2-0.2
	c0.1,0,0.2,0,0.3,0c0.1,0,0.2,0.1,0.2,0.3l-0.1,0.1c-0.1,0-0.1,0-0.2-0.1c0,0,0,0,0,0c0,0-0.1,0-0.1,0c0,0-0.1,0-0.1,0.1
	c0,0,0,0.1,0,0.2c0,0.1,0.1,0.2,0.2,0.2h0.1c0.1,0,0.2,0,0.2,0c0,0,0.2,0,0.3,0.3C157.1,95.1,157.1,95.2,157,95.3 M157.9,95
	c-0.1,0-0.1,0-0.2-0.1l-0.6-1.2c0-0.1,0-0.1,0.1-0.2l0.4-0.2c0.1,0,0.1,0,0.2,0.1c0,0.1,0,0.1-0.1,0.2l-0.2,0.1
	c-0.1,0-0.1,0.1-0.1,0.2l0.1,0.2c0,0.1,0.1,0.1,0.2,0l0.1-0.1c0.1,0,0.1,0,0.2,0c0,0.1,0,0.1-0.1,0.2l-0.1,0.1
	c-0.1,0-0.1,0.1-0.1,0.2l0.1,0.2c0,0.1,0.1,0.1,0.2,0.1l0.2-0.1c0.1,0,0.1,0,0.2,0.1c0,0.1,0,0.1-0.1,0.2L157.9,95z M158.5,93.2
	c-0.1,0-0.1,0.1,0,0.2l0.6,1c0,0.1,0,0.1,0,0.2l0,0c-0.1,0-0.1,0-0.2,0l-0.6-1c0-0.1-0.1-0.1-0.2,0l0,0c-0.1,0-0.1,0-0.2,0
	c0,0,0-0.1,0-0.2l0.5-0.3c0.1,0,0.1,0,0.2,0C158.6,93.1,158.5,93.1,158.5,93.2L158.5,93.2z M159.9,93.9c-0.1,0-0.1,0-0.2,0l-0.7-1.2
	c0-0.1,0-0.1,0-0.2l0,0c0.1,0,0.1,0,0.2,0l0.6,1c0,0.1,0.1,0.1,0.2,0l0.2-0.1c0.1,0,0.1,0,0.2,0c0,0,0,0.1,0,0.2L159.9,93.9z
	 M161.1,93.1c-0.1,0-0.1,0-0.2,0l-0.1-0.1c0,0-0.1,0-0.2,0l-0.1,0.1c-0.1,0-0.1,0.1-0.1,0.2l0,0.1c0,0.1,0,0.1,0,0.2l0,0
	c-0.1,0-0.1,0-0.1,0l-0.5-1.3c0-0.1,0-0.1,0.1-0.2l0,0c0.1,0,0.1,0,0.2,0l1,1C161.2,93,161.2,93.1,161.1,93.1L161.1,93.1z
	 M160.2,92.4C160.2,92.4,160.2,92.4,160.2,92.4l0.1,0.4c0,0.1,0.1,0.1,0.1,0l0,0c0.1,0,0.1-0.1,0-0.1L160.2,92.4z M162,92.5
	c-0.1,0.1-0.2,0.1-0.3,0.1c-0.2,0-0.3-0.2-0.5-0.5c-0.2-0.3-0.3-0.5-0.3-0.6c0-0.1,0-0.2,0.2-0.3c0.1-0.1,0.2-0.1,0.3-0.1
	c0.1,0,0.2,0.1,0.3,0.2l-0.1,0.1c-0.1,0-0.1,0-0.2,0c0,0-0.1-0.1-0.2,0c0,0-0.1,0.1-0.1,0.1c0,0.1,0.1,0.2,0.3,0.5
	c0.2,0.2,0.3,0.4,0.4,0.4c0,0,0.1,0,0.1,0c0.1-0.1,0.1-0.2,0-0.3l-0.1-0.1c0-0.1-0.1-0.1-0.1,0c0,0-0.1,0-0.1,0c0,0,0-0.1,0-0.2
	l0.1-0.1c0.1,0,0.1,0,0.2,0l0.2,0.3C162.3,92.2,162.2,92.4,162,92.5 M162.6,92.1c-0.1,0-0.1,0-0.2,0l-0.8-1.1c0-0.1,0-0.1,0-0.2l0,0
	c0,0,0.1,0,0.2,0l0.7,0.9c0,0.1,0.1,0.1,0.2,0l0.2-0.1c0,0,0.1,0,0.2,0c0,0,0,0.1,0,0.2L162.6,92.1z M163.6,91.2
	c0,0.1,0,0.2-0.2,0.3c-0.1,0.1-0.2,0.1-0.3,0.1c-0.2,0-0.3-0.2-0.5-0.5c-0.2-0.3-0.3-0.4-0.3-0.6c0-0.1,0-0.2,0.2-0.3
	c0.1-0.1,0.2-0.1,0.3-0.1c0.2,0,0.3,0.2,0.5,0.5C163.5,90.9,163.6,91,163.6,91.2 M162.7,90.3c0,0-0.1,0-0.1,0c0,0-0.1,0.1-0.1,0.1
	c0,0.1,0.1,0.2,0.3,0.5c0.2,0.2,0.3,0.4,0.4,0.4c0,0,0.1,0,0.1,0c0,0,0.1-0.1,0.1-0.1c0-0.1-0.1-0.2-0.3-0.5
	C162.9,90.5,162.8,90.3,162.7,90.3 M164.1,91c0,0-0.1,0-0.2,0l-0.8-1.1c0-0.1,0-0.1,0-0.2l0,0c0.1,0,0.1,0,0.2,0l0.8,1.1
	C164.2,90.8,164.2,90.9,164.1,91L164.1,91z M165,90.3c0,0-0.1,0-0.2,0l-0.4-0.3c-0.1,0-0.1,0-0.2,0c0,0,0,0.1,0,0.1l0.3,0.3
	c0,0,0,0.1,0,0.2l0,0c0,0-0.1,0-0.2,0l-0.8-1.1c0,0,0-0.1,0-0.2l0.1-0.1c0,0,0.1-0.1,0.2-0.1c0,0,0.3-0.1,0.5,0.2
	c0.1,0.2,0.2,0.3,0.1,0.5l0.5,0.4C165.1,90.1,165.1,90.2,165,90.3L165,90.3z M163.9,89.4L163.9,89.4c-0.1,0.1-0.1,0.1,0,0.2l0.2,0.2
	c0,0,0.1,0.1,0.1,0c0,0,0.1-0.1,0.1-0.2c0,0,0-0.1-0.1-0.2C164.1,89.3,164,89.3,163.9,89.4 M165.4,90c-0.1,0-0.1,0-0.2,0l-0.8-1.1
	c0-0.1,0-0.1,0-0.2l0.4-0.3c0.1,0,0.1,0,0.2,0c0,0,0,0.1,0,0.2l-0.2,0.1c0,0-0.1,0.1,0,0.2l0.1,0.2c0,0,0.1,0.1,0.2,0l0.1-0.1
	c0.1,0,0.1,0,0.2,0c0,0,0,0.1,0,0.2l-0.1,0.1c-0.1,0-0.1,0.1,0,0.2l0.1,0.2c0,0.1,0.1,0.1,0.2,0l0.2-0.1c0.1,0,0.1,0,0.2,0
	c0,0,0,0.1,0,0.2L165.4,90z M169.2,71.8c-0.2,0.1-4.3,2.6-5.2,3.4c-0.9,0.8-3.2,3.2-3.6,3.7c-0.1,0.1-0.1,0.2-0.2,0.2
	c-0.3-0.4,0.7-1.3,0.7-1.4c-0.1,0-0.5,0.5-0.6,0.6c-0.1,0.1-0.1,0.2-0.2,0.2c-0.2-0.2,0-0.4,0.1-0.6c0.1-0.1,0.5-0.7,0.6-0.9
	c-0.3,0.2-0.5,0.5-0.7,0.7c0,0-0.1,0.2-0.1,0.2c-0.1,0-0.1-0.3,0-0.4c0-0.1,0.9-1,0.9-1.1c-0.2,0.2-0.5,0.4-0.8,0.7
	c0,0.1-0.2,0.2-0.2,0.2c-0.1,0-0.1-0.2,0-0.3c2.9-2.9,9.2-5.5,9.4-5.5C169.4,71.6,169.4,71.7,169.2,71.8 M149.8,74.9
	c-0.2,0.1-2.1,0.3-2.6,0.4c-0.1-0.1-0.1-0.4-0.3-0.4c-0.1,0-0.2,0-0.3,0c-0.5,0-1,0.1-1.5,0.2c-0.1,0-0.2,0-0.3,0l0,0
	c0,0-0.1-0.1-0.1-0.2c0-0.1-0.5-0.8-0.8-1.2c-0.1-0.2-0.3-0.4-0.3-0.5c0-0.1,0-0.3,0-0.4c0-0.1-0.1-0.2-0.2-0.3
	c-0.1,0-0.2,0-0.3-0.1c0-0.1-0.1-0.2-0.1-0.3c-0.1-0.3-0.2-0.6-0.4-0.8c-0.1-0.1-0.5-0.9-0.7-0.9c-0.1,0-0.2,0-0.3,0
	c-0.2-0.1-0.2-0.4-0.4-0.4c-0.1,0-0.6,0.4-0.7,0.5c-0.6,0.4-1.8,1.3-1.9,1.4c-0.1,0.2,0.1,0.3,0.1,0.3s0.2,0.2,0.3,0.3
	c0,0.1,0,0.2,0,0.3c0,0.1,0.7,1.1,1.2,1.5c0.1,0.1,0.3,0.1,0.3,0.2c0,0.1-0.1,0.2-0.1,0.3c0,0.2,0.4,0.3,0.5,0.4
	c0.2,0.2,0.3,0.4,0.5,0.7c0.2,0.2,0.2,0.3,0.4,0.6c0,0-0.3,0.7-0.9,0.2c-3.5-3-10.3-5.8-11-6.1c-0.2-0.1-0.4-0.2-0.4-0.1
	c0,0,0.7,1.1,1,1.8c0.1,0.3,1,1.8,1.1,2c-0.3,0-0.6-0.4-0.7-0.3c-0.1,0,0,0.3,0.1,0.6c0.1,0.3,0.6,2.1,1.5,3.5
	c0.1,0.2,0.2,0.3,0.1,0.3c-0.1,0.1-0.7-0.3-0.8-0.3c0,0-0.1,0,0,0.2c0.1,0.2,0.5,1.1,1.9,3.2c-0.1,0.1-0.2,0-0.3,0.1
	c-0.1,0.1,0.1,0.3,0.2,0.5c0.1,0.2,0.8,1.1,0.9,1.2c0.1,0.1,1,1.1,1.4,1.4c0.5,0.3,1.5,0.9,1.8,1c0.3,0.1,1.3,0.4,1.6,0.5
	c0.3,0,0.5,0.1,0.6,0.1c0.1,0,0.3,0.2,0.5,0.3c1.5,0.8,2.5,0.8,3.5,0.7c0.5-0.1,0.8-0.1,1,0c0.2,0.1,0.9,0.7,1,0.8
	c0,0-0.4,0.7-0.5,1c-0.3,0.5-1.5,2.5-1.6,2.7c-0.1,0.1-0.3,0.6-0.5,0.5c-0.1,0-1.9-1.1-2.3-1.4c-0.4-0.3-3.2-2.3-3.7-2.7
	c-0.3-0.3-1.9-1.2-3.4,0.8c-1.1,1.8-1.3,3.6,1,5.4c0.3,0.2,0.9,1.2,0.7,2.1c0,0.1-0.1,0.2,0,0.3c0.1,0.1,1.9-1.5,2.1-3.3
	c0.9,0.8,1.9,1.5,3,2.1c-0.1,0.2-0.3,0.4-0.4,0.5c-0.1,0.1-0.3,0.4-0.4,0.4c-0.1,0-0.4,0.1-0.5,0.2c-0.1,0.2,0.1,0.3,0,0.5
	c0,0.1-0.2,0.3-0.2,0.4c-0.1,0.1-0.2,0.3-0.3,0.3c-0.1,0.1-0.2,0.1-0.3,0.1c-0.1,0-0.1,0.1-0.2,0.1c-0.1,0-0.2,0-0.2,0.1
	c-0.2,0.1-0.2,0.3-0.1,0.5c0,0.1,0.1,0.2,0.1,0.3c0.1,0.1,0.2,0.2,0.3,0.4c0.1,0.2,1,1.5,0.9,1.9c-0.1,0.1-0.2,0.1-0.4,0.2
	c-0.2,0-0.3-0.1-0.5-0.2c0.1-0.2,0.4-0.7,0.3-0.9c-0.1-0.2-0.1-0.2-0.4-0.3c-0.2-0.2-2.7-2.5-2.8-2.8c-0.2-0.3-0.8-1.1-1-1.4
	c-0.2-0.3-0.9-1.4-1-1.4c-0.1,0-0.3,0.4-0.3,0.5c0,0.1-0.1,0.3-0.1,0.4c-0.3,1-0.8,3.3-0.4,6.5c0.5,3.6,2.4,6.4,3.1,7.2
	c0.1,0.1,0.2,0.2,0.3,0.2c0.4-0.1,1-0.7,1.2-0.9c0.1-0.1,0.2,0,0.2,0c0,0,0,0,0.1,0c1.1,1.1,2.6,2.2,4.5,3c0.6,0.3,1.2,0.5,1.7,0.7
	c3.3,1.3,5.4,2,6.7,5.9c0.1,0.2,0.1,0.2,0.1,0.2c0.1,0,0.1-0.2,0.1-0.2c1.2-4.1,3.4-4.8,6.7-6.1c0.5-0.2,1.1-0.4,1.7-0.7
	c2-0.8,3.5-2,4.6-3c0.2,0.2,0.8,0.8,1.2,0.9c0.1,0,0.1,0,0.2-0.1c0.7-0.8,2.7-3.4,3.2-7.3c0.5-3.2-0.1-5.6-0.4-6.5
	c-0.1-0.2-0.2-0.8-0.4-0.8c-0.1,0-0.3,0.1-0.4,0.3c-0.1,0.1-0.2,0.3-0.3,0.4c-1.6,2.6-4.6,4.9-4.8,5.2c-0.1,0.2,0.2,0.5,0.3,0.8
	c-0.1,0.1-0.3,0.2-0.5,0.2c-0.2,0-0.5-0.3-0.5-0.4c0-0.2,0.2-0.4,0.4-0.5c0.2-0.2,0.4-0.5,0.5-0.8c0.1-0.2,0.3-0.6,0.3-0.7
	c0-0.1,0.3-0.5,0.2-0.5c0-0.1-0.1-0.3-0.2-0.3c-0.1,0-0.6-0.2-0.7-0.2c-0.2-0.1-0.6-0.6-0.6-0.8c0-0.2,0.1-0.4,0-0.5
	c-0.1-0.1-0.3-0.1-0.5-0.2c-0.1-0.1-0.6-0.7-0.7-0.9c1.9-1.1,2.8-2,3.1-2.2v0c0.1,1.7,2,3.4,2.1,3.3c0-0.1,0-0.2-0.1-0.4
	c0-0.2,0-1.3,0.7-1.9c2.2-1.8,2.1-3.6,1-5.4c-1.2-1.6-2.4-1.3-3-1c-0.6,0.3-2.4,1.8-2.9,2.2c-0.7,0.5-2.7,1.8-3.2,2
	c-0.1,0-0.3,0-0.4-0.1c-0.3-0.3-1.2-1.6-1.6-2.5c-0.3-0.6-0.8-1.4-0.6-1.7c0.1-0.1,0.9-0.7,1.2-0.7c0.2,0,0.7,0.1,1.2,0.2
	c0.5,0.1,2.3-0.4,2.8-0.8c0.5-0.4,0.4-0.3,0.4-0.3c0.1,0,0.5-0.1,0.7-0.1c2.9-0.4,5.1-3,5.5-3.6c0.4-0.6,0.5-0.8,0.4-0.9
	c-0.1-0.2-0.2,0-0.3-0.1c0.3-0.5,1-1.3,1.1-1.6c0.1-0.3,0.6-0.8,0.7-1.3c0.1-0.3,0.2-0.4,0.1-0.6c-0.1-0.1-0.7,0.4-0.8,0.2
	c-0.1-0.1,0.3-0.5,1.2-2.2c0.7-1.4,0.7-2,0.6-2.2c-0.1-0.1-0.6,0.2-0.7,0.3c0.3-0.6,0.7-1.3,1.1-1.9c0.4-0.8,1.1-1.8,1-1.8
	c0,0-0.1,0-0.4,0.1c-0.6,0.3-7.4,3.1-11,6.1c-0.1,0.1-0.5,0.2-0.8,0c0.2-0.3,0.4-0.5,0.4-0.6c0.1-0.1,0.3-0.5,0.5-0.7
	c0.2-0.1,0.5-0.2,0.5-0.4c0-0.1-0.1-0.2-0.1-0.3c0-0.1,0.2-0.1,0.3-0.2c0.1-0.1,0.4-0.4,0.5-0.5c0.1-0.1,0.6-0.8,0.7-1
	c0-0.1,0-0.2,0-0.3c0-0.1,0.2-0.2,0.3-0.3c0,0,0.1-0.2,0.1-0.3c0-0.1-0.2-0.2-0.3-0.3c-0.6-0.5-1.8-1.3-1.9-1.4
	c-0.1-0.1-0.2-0.2-0.4-0.2c-0.2,0-0.2,0.3-0.4,0.4c-0.1,0-0.3,0-0.3,0c-0.1,0.1-0.4,0.6-0.5,0.7c-0.1,0.2-0.5,0.9-0.5,1
	c0,0.2-0.1,0.3-0.1,0.3c0,0.1-0.2,0-0.3,0.1c-0.1,0-0.2,0.2-0.2,0.3c0,0.1,0,0.3,0,0.4c-0.1,0.2-0.3,0.5-0.4,0.6
	c-0.1,0.2-0.7,1-0.7,1.1c-0.1,0.1-0.2,0.3-0.2,0.3c-0.3-0.1-0.7-0.2-0.9-0.2c-0.3,0-1.1-0.1-1.1-0.1c-0.3-0.1-0.4,0.2-0.5,0.4
	c-0.7-0.1-1.3-0.2-1.9-0.2c-0.1,0-0.1-0.2-0.1-0.4c0-0.1,0-2,0-2.3c0,0,0,0,0,0c1.7,2.4,3.4,2.3,3.9,2.1c0.4-0.4,1.1-1.6,1.4-2.8
	c0.2-0.8,0.4-1.7,0.3-2.4c-0.1-0.9-0.4-4.4-4-5.8c-3.6-1.4-6.6,0.2-7.2,0.6c-0.2,0.1-0.4,0.2-0.4,0.3c0,0.1,0.2,0.3,0.2,0.3
	c0.1,0,0.2,0,0.4,0s0.6,0.4,0.8,0.8c0.2,0.4,0.4,1,0.3,1.3c0,0.2-0.6,0.5-1.2,1.6c-0.4-0.4-0.6,0.6-0.8,0.8
	c-0.1,0.2-0.4,1.5-0.3,1.7c0.1,0.2,0.1,0.2,0.2,0.3c-0.2,0.6-0.6,1.2-0.7,1.4c-0.1,0.2-0.3,0.6-0.4,1.2c0.5,0.2,2.3,0.5,5.5-0.7
	C149.8,73.5,149.8,74.8,149.8,74.9C149.8,74.9,149.8,74.9,149.8,74.9 M151.1,72.4c0-0.1-0.1-0.1-0.1-0.1c-0.1,0-0.1,0.1-0.1,0.1v6
	c0,0.1,0,0.1,0.1,0.1c0.1,0,0.1-0.1,0.1-0.1V72.4z M150.7,72.6c0-0.1-0.1-0.1-0.2-0.1c-0.1,0.1-0.5,0.3-0.5,0.4v5.5
	c0,0.1,0.1,0.1,0.1,0.1s0.4,0,0.4,0c0.1,0,0.1-0.1,0.1-0.2V72.6z M150.3,109.7c0-0.1-0.2-10.2-0.2-10.2c0-0.1,0-1-0.1-1.1
	c-0.1-0.2-0.3-0.2-0.4-0.2c-1.1,0-1.8-0.2-2.3-0.3c-0.2,0-0.1,0.3,0,0.3c0.3,0,0.8,0.1,1.1,0.2c0,0.1,0,0.1-0.1,0.2
	c-0.2,0-1.3-0.3-1.1,0.1c0.1,0.2,0.8,0.2,1.1,0.3c0,0,0,0.1,0,0.1c-0.3,0-0.7-0.1-1-0.1c-0.1,0.1-0.1,0.2-0.1,0.3c0,0,1,0.1,1,0.3
	c-0.3,0.1-0.8-0.1-1,0c0,0.1,0,0.2,0,0.3c0.1,0.1,1,0.1,0.9,0.2c-0.2,0.1-0.8,0-0.9,0c0,0.1,0,0.2,0,0.3c0.1,0.1,0.9,0.1,0.9,0.2
	c-0.1,0-0.7,0.1-0.9,0c0,0.1,0,0.3,0,0.4c0.1,0.1,0.8,0,0.8,0.2c-0.1,0.1-0.7,0-0.9,0c0,0.1,0,0.2-0.1,0.4c0.1,0,0.8,0,0.8,0.2
	c0,0.1-0.7,0-0.9,0c0,0.1,0,0.2,0,0.3c0.1,0.1,0.9,0,0.9,0.1c0,0.1-0.9,0.1-0.9,0c0,0.1,0,0.2,0,0.4c0.2,0,0.9,0.1,0.9,0.2
	c-0.2,0.1-0.7,0-0.9,0c-0.1,0.1-0.1,0.2-0.1,0.3c0.2,0,0.8,0.1,1,0.2c0,0.1-0.1,0.1-0.2,0.1c-0.1,0-0.7-0.1-0.9-0.1
	c0,0.1-0.1,0.2-0.1,0.3c0.1,0.1,1.1,0.2,1.1,0.3c-0.3,0-0.8-0.1-1.2-0.1c0,0.1-0.1,0.2-0.2,0.3c0.3,0,0.8,0.2,1.1,0.3v0.1
	c-0.4,0-0.9-0.1-1.2-0.2c0,0.1-0.2,0.2-0.2,0.3c0,0.1,1.3,0.2,1.3,0.3c0,0.1-1.3-0.2-1.5-0.1c-0.1,0.1-0.2,0.2-0.3,0.3
	c0.2,0.1,1.5,0.3,1.6,0.3l0,0.2c-0.1,0-1.4-0.2-1.8-0.3c-0.1,0.1-0.2,0.2-0.3,0.3c0.1,0.1,2,0.3,2.2,0.4v0.1
	c-0.8-0.1-1.6-0.2-2.3-0.4c-0.2,0.1-0.6,0.1-0.8,0.1c0.8,0.2,1.6,0.4,2.5,0.6c0,0,0,0.1-0.1,0.1c-0.2-0.1-2.3-0.5-2.5-0.5
	c-0.1,0-0.1-0.1-0.2-0.1c-0.2-0.1-1.8,0.1-4.2-1.7c-2.1-1.6-4.1-4.2-4.5-4.8c-0.1-0.1-0.1-0.3-0.3-0.3c0,0.3,0.1,0.4,0.2,0.7
	c0.1,0.3,2.2,3.9,3.2,5.1c0.8,0.9,2.1,2.2,3.5,3c1.2,0.7,3.4,1.6,4.8,1.8c1,0.2,3.5,0.3,3.7,0.3C150.3,110,150.3,109.8,150.3,109.7
	 M137.3,93.1c-0.9-0.9-2.3-2.1-2.5-2c-0.1,0.1,0.3,0.3,0.4,0.4c0.1,0.1,1.7,1.5,1.8,1.7c0.1,0.2,0.3,0.4,0.4,0.5
	C137.4,93.8,137.6,93.5,137.3,93.1 M134,92.8c-0.1,0.1,0.3,0.4,0.3,0.4c0,0,1.6,1.4,1.7,2.5c0,0.1,0,0.3,0.1,0.2
	c0.1,0,0.2,0,0.1-0.3c0-0.4-0.3-0.9-0.5-1.2C135.6,94.3,134.1,92.7,134,92.8 M133.7,92.1c-0.1,0.1,0.3,0.3,0.4,0.4
	c0,0,2.2,1.7,2.4,2.7c0,0.1,0,0.3,0.1,0.2c0.1,0,0.2,0,0.1-0.3c-0.1-0.4-0.4-0.9-0.7-1.2C135.6,93.6,133.8,91.9,133.7,92.1
	 M133.7,91.4c-0.2,0.1,0.3,0.5,0.4,0.5c0.2,0.1,2.5,2.1,2.7,2.7c0,0.1,0.1,0.2,0.1,0.2c0.1,0,0.2,0,0.1-0.3
	c-0.1-0.4-0.3-0.6-0.9-1.2C135.5,92.8,133.9,91.3,133.7,91.4 M134,91c-0.2,0.1,0.3,0.5,0.4,0.5c0.2,0.1,2.3,1.9,2.7,2.6
	c0.1,0.1,0,0.2,0.1,0.2c0.1,0,0.1-0.1,0.1-0.2c0-0.2-0.4-0.5-1-1.1C135.8,92.3,134.2,90.9,134,91 M163.8,93.4
	c0.1-0.1,0.2-0.3,0.4-0.5c0.1-0.1,1.7-1.6,1.8-1.7c0.1-0.1,0.5-0.3,0.4-0.4c-0.1-0.1-1.6,1.1-2.5,2
	C163.4,93.3,163.6,93.6,163.8,93.4 M165.3,94.3c-0.3,0.3-0.5,0.9-0.5,1.2c0,0.3,0.1,0.2,0.1,0.3c0.1,0,0.1-0.1,0.1-0.2
	c0.1-1.1,1.7-2.5,1.7-2.5c0.1-0.1,0.4-0.3,0.3-0.4C166.9,92.5,165.4,94.1,165.3,94.3 M165.1,93.8c-0.3,0.4-0.7,0.8-0.7,1.2
	c-0.1,0.3,0,0.3,0.1,0.3c0.1,0,0.1-0.1,0.1-0.2c0.2-1,2.4-2.7,2.4-2.7c0.1-0.1,0.4-0.3,0.4-0.4C167.2,91.8,165.4,93.4,165.1,93.8
	 M164.9,93.2c-0.6,0.6-0.8,0.9-0.9,1.2c-0.1,0.3,0,0.3,0.1,0.3c0.1,0,0.1-0.1,0.1-0.2c0.2-0.7,2.5-2.6,2.7-2.7
	c0.1-0.1,0.6-0.5,0.4-0.5C167.1,91.1,165.5,92.6,164.9,93.2 M164.7,92.8c-0.6,0.6-0.9,0.9-1,1.1c0,0.2,0,0.2,0.1,0.3
	c0.1,0,0.1-0.1,0.1-0.2c0.4-0.7,2.6-2.5,2.7-2.6c0.1-0.1,0.6-0.5,0.4-0.5C166.8,90.7,165.3,92.2,164.7,92.8 M150.6,98.4v-0.2
	 M139.8,97.4c1.2,0.9,3.7,2.6,4.9,3.5c0,0.1-0.1,0.2-0.1,0.2c-0.1,0-1.9-1.3-1.9-1.3l-0.1,0.1c0,0,1.4,0.9,1.9,1.3
	c0,0-0.2,0.2-0.2,0.2c-1.2-0.9-3.7-2.7-4.9-3.6C139.4,97.8,139.7,97.6,139.8,97.4 M139.9,96.8c0.3-0.1,4.8,3.3,5.2,3.6
	c0.1,0.1,0.2,0.2,0.2,0.4c-0.1,0-0.3-0.1-0.4-0.2c-0.1-0.1-4.7-3.5-4.9-3.6C139.9,96.9,139.8,96.9,139.9,96.8 M138.8,98.2
	C138.8,98.2,138.8,98.2,138.8,98.2L138.8,98.2c1,0.6,4.8,3.4,5.1,3.7c0.1,0.1,0.3,0.2,0.2,0.3c-0.1,0-0.1,0-0.2-0.1
	C143.6,101.9,140.1,99.3,138.8,98.2L138.8,98.2z M138.7,98.8c-0.1-0.1-0.5-0.3-0.2-0.4c1.8,1.3,3.7,2.7,5.5,4c0,0,0.1,0.1,0.1,0.1
	c-0.1,0.1-0.3-0.1-0.4-0.1C142.4,101.5,139.1,99.1,138.7,98.8 M139.9,98.2c-0.1-0.1,0-0.2,0-0.2c0.1-0.1,0.8,0.4,0.9,0.7
	C140.5,98.7,140.1,98.3,139.9,98.2 M150.3,79.9c0-0.2,0.1-0.3,0.1-0.3c-1.5-0.1-2.7-1.2-2.7-2.5c0-0.6,0.2-1.1,0.6-1.6
	c-0.3-0.1-0.9,0-1,0.1c-0.2,0.1-0.2,0.2-0.2,0.2c-0.1,0.5-0.1,1.3,0,2.4c0.1,1.1,0.6,2.4,0.9,3.1c0,0,0,0,0,0.1c0,0-1.4,1.1-1.5,1.1
	c-0.2,0-0.9-0.7-1-0.8c0,0-0.1,0-0.1,0c-0.3,0-0.5,0-0.7,0c-0.1,0-0.3,0-0.4,0.1c0.4,1.3,1,2.7,1.7,3.8c0.1,0.2,0.2,0.4,0.3,0.5
	c0.1,0.1,0.4,0.3,1.3,0.2c0.7,0,1.5,0,2.2,0h0V86h0.9v-5.8C150.5,80.2,150.3,80.1,150.3,79.9 M151,79.9c0,0,0.1,0.1,0.7,0.1
	l-0.1,0.1h-0.7c0,0-0.2,0-0.2,0.2c0,0.2,0.2,0.2,0.2,0.2h0.7l-0.1,0.2h-0.7c0,0-0.2,0-0.2,0.2c0,0.2,0,0.3,0.2,0.3h0.8l-0.1,0.1
	h-0.7c-0.1,0-0.2,0-0.2,0.2c0,0.1,0.1,0.2,0.1,0.2h0.8l-0.1,0.1h-0.7c-0.1,0-0.2,0.1-0.2,0.2c0,0.1,0.1,0.3,0.2,0.3h0.7l-0.1,0.1
	h-0.7c-0.1,0-0.2,0.1-0.2,0.2c0,0.1-0.1,0.2,0.2,0.2h0.7l-0.1,0.1h-0.7c-0.1,0-0.2,0-0.2,0.2c0,0.2,0.1,0.2,0.2,0.2h0.6l-0.1,0.1
	h-0.6c-0.1,0-0.2,0-0.2,0.2s0.1,0.2,0.2,0.2h0.6l0.1,0.2h-0.6c-0.1,0-0.2,0-0.2,0.2c0,0.2,0.1,0.2,0.2,0.2h0.6l0.1,0.2h-0.6
	c-0.1,0-0.2,0-0.2,0.2c0,0.2,0.1,0.2,0.2,0.2h0.6l0.1,0.1c0,0-0.5,0-0.6,0c-0.2,0-0.3,0.1-0.3,0.2c0,0.1,0.1,0.2,0.2,0.2h0.7
	l0.1,0.2h-1V86h0.8v0.2c0.9,0,1.9-0.1,2.8-0.1c0.2,0,0.7,0.1,0.6-0.2c0-0.1-0.3-0.1-0.4-0.1c-0.5,0-0.9,0-1.3,0c0,0,0-0.1,0-0.2
	c0.4,0,1.6,0,1.6,0c0.2,0,0.4,0,0.4-0.2c-0.4-0.1-0.8-0.1-1.2-0.1c0,0,0-0.1,0-0.1c0.3,0,0.6,0,0.9,0c0.3,0,0.7,0,0.6-0.3
	c-0.3,0-0.8,0-1.1-0.1c0-0.1,0-0.1,0-0.2c0.2,0,0.6,0,0.9,0c0.2,0,0.6,0.1,0.5-0.2c-0.3-0.1-0.8-0.1-1.1-0.2c0-0.1,0.1-0.1,0.1-0.2
	c0.2,0,1.4,0,1.4-0.2c0,0,0,0,0,0c-0.6-0.2-1.4,0-2-0.2v-0.1c0,0,2.1,0,2.1,0c0.1,0,0.2-0.1,0.1-0.2c0-0.1-0.4-0.1-0.5-0.1
	c-0.4-0.1-0.9,0-1.3-0.1c0-0.1,0-0.1,0-0.1c0.5,0,1.2,0,1.6,0c0.1,0,0.4,0,0.4-0.2c0-0.1-0.6-0.2-0.7-0.2c-0.4-0.1-0.7-0.1-1.2-0.1
	c-0.2,0-1.5-1.1-1.6-1.2c-0.1-0.1,0.3-0.8,0.3-0.8c0.1-0.2,0.2-0.5,0.2-0.6c0,0,0-0.1,0-0.2c0.1-0.4,0.3-1.1,0.3-1.6
	c0.1-1.1,0-1.9,0-2.3c-0.1-0.4-0.3-0.4-0.7-0.5c-0.5-0.1-0.2,0.2-0.2,0.2c0.3,0.4,0.4,0.9,0.4,1.4c0,1.3-1.1,2.4-2.5,2.5
	c0,0-0.1,0,0,0.1C151,79.8,151,79.9,151,79.9 M161.5,80.5c0,0-0.4,0.6,0.4,0.2c0.8-0.5,1.3-0.6,1.3-0.6c-0.7,0.6-2.2,1.2-2.2,1.2
	l-0.7,1.1c0.3,0,2.8-1.2,3.2-1.5c0.4-0.4,1.5-2.4,1.6-2.8c0.2-0.4,0-0.5-0.2-0.3c-0.1,0.1-0.8,0.6-1.1,0.9c-0.3,0.3-1.8,1.2-1.8,1.2
	C162,79.9,161.6,80.5,161.5,80.5 M135.8,76.5c-0.2-0.4-0.8-2-0.7-2.1c0.1-0.1,0.3,0,0.4,0.1c0.2,0.2,0.2,0.5,0.3,0.7
	c0,0,0-0.2,0.1-0.2c0.4,0,0.4,0.8,0.9,1c0-0.1-0.1-0.2,0-0.3c0.2,0,0.3,0.1,0.4,0.2c0.2,0.2,0.8,1.2,0.8,1.4
	c-0.3,0.1-1.5-1.1-1.6-1.1c0.1,0.2,1.6,1.6,1.8,1.7c0.1,0.2,0.5,1.1,0.5,1.2c0,0,0.1,0.1,0,0.1C138.5,79.3,136,76.9,135.8,76.5
	 M130.6,71.5c0.1-0.1,0.9,0.5,1.1,0.9c0.1,0.2,0.2,0.4,0.2,0.3c0,0-0.1-0.3,0-0.3c0.1,0,0.4,0.1,0.9,1c0-0.1-0.2-0.4-0.1-0.5
	c0.3-0.1,0.5,0.6,0.7,0.8c0.2,0.2,0-0.3,0.1-0.3c0.1,0,0.3,0,0.3,0.1c0,0.1,0.4,1,0.6,1c0.1,0-0.2-0.5-0.1-0.6
	c0.1-0.1,0.3,0.2,0.4,0.3c0.1,0.1,0.6,1.4,0.5,1.5c-0.1,0.1-0.7-0.4-0.9-0.5c-0.2-0.2-1.4-1.2-1.4-1.2c0,0,0.3,0.5,0.7,0.9
	c0.9,0.9,1.9,1.6,1.9,1.6s0.4,0.6,0.2,0.6c-1.1,0-2.9-2.2-3.1-2.5C132.3,74.4,130.4,71.6,130.6,71.5 M138.8,79.8
	c0,0-1.4-0.9-1.8-1.2c-0.3-0.3-1-0.8-1.1-0.9c-0.1-0.1-0.3-0.1-0.2,0.3c0.2,0.4,1.3,2.5,1.6,2.8c0.4,0.4,2.8,1.5,3.2,1.5l-0.7-1.1
	c0,0-1.5-0.5-2.2-1.2c0,0,0.6,0.1,1.3,0.6c0.8,0.5,0.4-0.1,0.4-0.2C139.4,80.5,139,79.9,138.8,79.8 M144.4,77.4c0.1,0-0.3,0-0.3,0.2
	c0,0.2,0,2.2-0.2,2.7c-0.2,0.5-0.4,1.2-0.3,1.3c0.1,0.1,0.2,0.1,0.3-0.2c0.1-0.3,0.8-2.3,0.7-3.6C144.6,77.5,144.4,77.4,144.4,77.4
	 M156.3,77.9c-0.1,1.3,0.5,3.3,0.7,3.6c0.1,0.3,0.2,0.2,0.3,0.2c0.1-0.1-0.1-0.7-0.3-1.3c-0.2-0.5-0.2-2.5-0.2-2.7
	c0-0.2-0.3-0.2-0.3-0.2C156.5,77.5,156.3,77.5,156.3,77.9"/>
<path class="st0" d="M355.1,174.7c-13.1-9-20.1-13.8-26.7-18.7c-3.2,5.2-5,11.4-5,18c0,12,6,22.5,15.2,28.8
	C342.4,195.2,347.6,186.8,355.1,174.7"/>
<path class="st0" d="M389.4,181.6c-5.4,5.7-14,6.6-20.2,2.7c-1.2-0.8-9.7-6.6-9.7-6.6c-9.4,13.3-14.2,19.9-19.4,26
	c5.3,3.2,11.5,5.1,18.1,5.1c18.7,0,33.9-14.7,34.8-33.1C392.2,177.9,391,179.9,389.4,181.6"/>
<path class="st0" d="M382.9,162c-1.2-0.8-8.6-5.7-8.6-5.7c-6.1,9-7.1,10.3-11.7,17c0,0,8.1,5.3,9.3,6c4.2,2.6,9.8,1.8,13.1-1.8
	c1.3-1.4,2.2-3.1,2.5-5C388.1,169.1,387,164.7,382.9,162"/>
<path class="st0" d="M357.9,170.3c4.4-7,8.4-13.3,14.7-22.8c0,0,13.2,8.7,14.3,9.5c1.4,1,2.4,2,3.2,2.9
	c-5.4-12.2-17.6-20.8-31.9-20.8c-11.3,0-21.4,5.4-27.8,13.8C337.4,157.2,345.8,162.5,357.9,170.3"/>
<path class="st0" d="M325.3,148.9c0-2.4-2-4.4-4.4-4.4c-2.4,0-4.4,1.9-4.4,4.4c0,2.4,2,4.4,4.4,4.4
	C323.3,153.3,325.3,151.3,325.3,148.9"/>
<path class="st0" d="M328.4,136.1l2.1-1.5c1.2-0.9,2.5-0.7,3.2,0.3l0,0c0.8,1.2,0.3,2.5-0.8,3.3l-1,0.7l1.2,1.7l-0.9,0.7
	L328.4,136.1z M332.3,137.4c0.7-0.5,0.9-1.2,0.5-1.7l0,0c-0.4-0.6-1.1-0.6-1.8-0.1l-1.1,0.8l1.3,1.9L332.3,137.4z"/>
<path class="st0" d="M336.9,134.3L336.9,134.3c-0.7-1.7-0.1-3.6,1.7-4.4c1.8-0.8,3.7,0,4.4,1.7l0,0c0.7,1.7,0.1,3.6-1.7,4.4
	C339.5,136.8,337.7,136,336.9,134.3 M342,132L342,132c-0.5-1.2-1.8-1.7-2.9-1.2c-1.2,0.5-1.6,1.8-1.1,3l0,0c0.5,1.1,1.8,1.7,2.9,1.2
	C342.1,134.5,342.5,133.2,342,132"/>
<polygon class="st0" points="345.8,127.4 346.9,127.2 348.1,132.5 351.4,131.8 351.6,132.8 347.2,133.7 "/>
<polygon class="st0" points="355,129.9 352.2,126.1 353.5,126.1 355.5,128.8 357.1,125.9 358.4,125.8 356.1,129.8 356.2,132.4 
	355.1,132.4 "/>
<polygon class="st0" points="363,127.2 361,126.9 361.1,125.9 366.3,126.5 366.2,127.5 364.2,127.3 363.6,132.7 362.4,132.5 "/>
<polygon class="st0" points="370.2,127.3 374.7,128.7 374.4,129.7 371,128.6 370.5,130.2 373.6,131.2 373.3,132.2 370.2,131.2 
	369.7,132.9 373.2,134 372.9,134.9 368.3,133.5 "/>
<path class="st0" d="M377,133.1L377,133.1c0.9-1.6,2.8-2.3,4.5-1.4c1,0.6,1.5,1.3,1.7,2.1l-1,0.4c-0.2-0.7-0.6-1.2-1.2-1.6
	c-1.1-0.6-2.4-0.1-3,1l0,0c-0.6,1.1-0.3,2.4,0.8,3c0.7,0.4,1.3,0.3,2,0.1l0.3,1c-0.9,0.3-1.8,0.3-2.8-0.2
	C376.6,136.7,376.1,134.8,377,133.1"/>
<polygon class="st0" points="387,135.4 387.9,136.1 386.2,138.2 388.5,140.1 390.2,138.1 391.1,138.8 387,143.7 386.1,143 
	387.9,140.9 385.5,139 383.7,141 382.9,140.3 "/>
<polygon class="st0" points="394.5,142.4 395.2,143.2 393.8,148.6 397.3,145.9 398,146.8 392.9,150.7 392.3,150 393.8,144.4 
	390.1,147.2 389.5,146.3 "/>
<rect x="394.4" y="152" transform="matrix(0.8786 -0.4775 0.4775 0.8786 -24.5927 208.3889)" class="st0" width="6.4" height="1.1"/>
<path class="st0" d="M398.7,162.2c-0.5-0.4-1-0.9-1.2-1.7c-0.6-1.9,0.3-3.7,2-4.3l0,0c1.7-0.6,3.6,0.2,4.3,2.1
	c0.6,1.9-0.3,3.7-2,4.3l0,0c-0.7,0.2-1.4,0.2-2.1,0l-0.4,0.9l-1-0.4L398.7,162.2z M399.2,161.1l0.5-1.3l1,0.4l-0.6,1.4
	c0.4,0.1,0.8,0.1,1.2-0.1l0,0c1.2-0.4,1.9-1.6,1.5-2.8c-0.4-1.2-1.7-1.7-2.9-1.3l0,0c-1.2,0.4-1.9,1.6-1.5,2.8
	C398.6,160.6,398.9,160.9,399.2,161.1"/>
<path class="st0" d="M402,166.1l3.7-0.4l0.1,1.1l-3.6,0.4c-1.2,0.1-1.8,0.8-1.6,1.8c0.1,1,0.8,1.5,2,1.4l3.7-0.4l0.1,1.1l-3.6,0.4
	c-1.9,0.2-3-0.7-3.2-2.4C399.3,167.5,400.1,166.3,402,166.1"/>
<polygon class="st0" points="406.4,175.5 406,180.3 405,180.2 405.3,176.5 403.6,176.4 403.3,179.6 402.3,179.6 402.6,176.3 
	400.9,176.2 400.6,179.9 399.6,179.8 399.9,175 "/>
<polygon class="st0" points="330.8,213.6 329.8,212.9 333.6,207.7 334.5,208.3 "/>
<polygon class="st0" points="326,209.9 325.3,209.2 326,203.6 322.8,206.7 322.1,205.9 326.6,201.4 327.3,202.1 326.6,207.8 
	329.8,204.6 330.6,205.4 "/>
<path class="st0" d="M324,199.6l-1.1-0.1c0.1-0.8,0-1.5-0.4-2.2c-0.4-0.6-0.9-0.8-1.3-0.5l0,0c-0.4,0.3-0.4,0.6,0,1.8
	c0.5,1.3,0.6,2.2-0.4,2.8l0,0c-0.9,0.6-2.1,0.3-2.8-0.8c-0.5-0.8-0.7-1.6-0.6-2.4l1.1,0c0,0.7,0.1,1.3,0.4,1.8
	c0.4,0.6,0.9,0.7,1.2,0.5l0,0c0.4-0.3,0.4-0.6,0-1.8c-0.5-1.3-0.5-2.2,0.4-2.8l0,0c1-0.7,2.1-0.3,2.9,0.9
	C324,197.6,324.2,198.6,324,199.6"/>
<polygon class="st0" points="315.2,193.2 316,195 315,195.4 313,190.6 313.9,190.2 314.7,192.1 319.7,190 320.1,191 "/>
<rect x="311.6" y="185.2" transform="matrix(0.9652 -0.2614 0.2614 0.9652 -37.6055 88.7471)" class="st0" width="6.4" height="1.1"/>
<polygon class="st0" points="311.5,180.4 311.8,182.4 310.8,182.5 310.1,177.3 311.2,177.2 311.4,179.2 316.8,178.6 316.9,179.7 "/>
<path class="st0" d="M313.7,173.9l-3.7-0.2l0.1-1.1l3.7,0.2c1.2,0.1,1.9-0.5,1.9-1.5c0.1-1-0.5-1.7-1.7-1.7l-3.7-0.2l0.1-1.1
	l3.6,0.2c1.9,0.1,2.8,1.3,2.7,3C316.6,173,315.6,174,313.7,173.9"/>
<polygon class="st0" points="312.5,162.7 312,164.7 310.9,164.4 312.3,159.4 313.3,159.6 312.8,161.6 318,163 317.7,164.1 "/>
<path class="st0" d="M343.8,213l2.5,0.7c2.6,0.7,3.5,2.4,3,4.3l0,0c-0.5,1.9-2.3,2.9-4.9,2.2l-2.4-0.7L343.8,213z M345.1,218.4
	c1,0.3,1.7,0.1,2-0.9l0,0c0.3-0.9-0.3-1.5-1.2-1.8l-0.4-0.1l-0.8,2.7L345.1,218.4z"/>
<polygon class="st0" points="353.4,215.3 359.1,215.6 359.1,217.4 355.5,217.3 355.5,217.9 358.8,218.1 358.7,219.7 355.4,219.6 
	355.4,220.3 359,220.5 358.9,222.3 353.1,222 "/>
<path class="st0" d="M367.7,214.5l2.9-0.9c1.7-0.5,3.1-0.1,3.6,1.4l0,0c0.5,1.6-0.5,2.8-2.2,3.3l-0.7,0.2l0.5,1.8l-2.2,0.7
	L367.7,214.5z M371.4,216.9c0.6-0.2,0.8-0.5,0.7-1l0,0c-0.1-0.5-0.6-0.6-1.1-0.4l-0.6,0.2l0.4,1.4L371.4,216.9z"/>
<path class="st0" d="M377.7,210.6l1.9-1.1l5.8,4.5l-2.1,1.2l-0.8-0.6l-2.1,1.2l0.1,1l-2.1,1.2L377.7,210.6z M381.4,213.5l-1.3-1.1
	l0.3,1.7L381.4,213.5z"/>
<path class="st0" d="M384.3,206.4l2.4-2.3c0.9-0.8,1.6-1.1,2.3-1.1c0.6,0,1.1,0.2,1.5,0.8l0,0c0.7,0.7,0.8,1.6,0.4,2.4l2.7,0.6
	l-1.9,1.8l-2.2-0.5l0,0l-0.3,0.3l1.3,1.4l-1.7,1.5L384.3,206.4z M388.9,206.6c0.4-0.4,0.5-0.8,0.2-1.1l0,0c-0.3-0.3-0.7-0.2-1.1,0.1
	l-0.7,0.7l0.9,1L388.9,206.6z"/>
<rect x="393.4" y="197.1" transform="matrix(0.5921 -0.8059 0.8059 0.5921 -0.6546 399.7005)" class="st0" width="2.3" height="6.8"/>
<path class="st0" d="M399.3,197.7l-0.8-1.7c0.8-0.4,1.4-1.1,1.7-1.8c0.2-0.4,0.2-0.6,0-0.6l0,0c-0.2-0.1-0.4,0.1-0.8,0.6
	c-0.9,1.2-1.9,2.2-3.2,1.6l0,0c-1.2-0.6-1.6-1.9-0.8-3.6c0.6-1.2,1.3-1.9,2.2-2.3l0.9,1.7c-0.7,0.4-1.2,1-1.5,1.5
	c-0.1,0.3-0.1,0.5,0,0.6l0,0c0.2,0.1,0.3,0,0.8-0.6c1-1.4,2-2.2,3.2-1.6l0,0c1.3,0.6,1.5,2,0.8,3.7
	C401.2,196.3,400.3,197.2,399.3,197.7"/>
<rect x="423.4" y="137.6" class="st0" width="3.1" height="17.9"/>
<polygon class="st0" points="435.4,137.6 438.3,137.6 447.9,150 447.9,137.6 451,137.6 451,155.5 448.4,155.5 438.5,142.8 
	438.5,155.5 435.4,155.5 "/>
<path class="st0" d="M466.5,145.1c-3.4-0.8-4.2-1.5-4.2-2.8c0-1.2,1.1-2.1,2.9-2.1c1.6,0,3.2,0.6,4.8,1.8l1.7-2.4
	c-1.8-1.5-3.9-2.2-6.5-2.2c-3.5,0-6.1,2.1-6.1,5.2c0,3.3,2.1,4.4,5.9,5.4c3.3,0.8,4,1.5,4,2.8c0,1.4-1.2,2.3-3.2,2.3
	c-2.2,0-3.9-0.8-5.6-2.3l-1.9,2.2c2.1,1.9,4.7,2.9,7.5,2.9c3.8,0,6.4-2,6.4-5.4C472.3,147.4,470.3,146,466.5,145.1"/>
<polygon class="st0" points="483.6,140.5 477.9,140.5 477.9,137.6 492.4,137.6 492.4,140.5 486.7,140.5 486.7,155.5 483.6,155.5 "/>
<rect x="499.3" y="137.6" class="st0" width="3.1" height="17.9"/>
<polygon class="st0" points="515,140.5 509.4,140.5 509.4,137.6 523.9,137.6 523.9,140.5 518.2,140.5 518.2,155.5 515,155.5 "/>
<path class="st0" d="M530.2,147.9v-10.3h3.1v10.2c0,3.3,1.7,5.1,4.5,5.1c2.8,0,4.5-1.7,4.5-5v-10.3h3.1v10.1c0,5.3-3,8-7.7,8
	C533.1,155.8,530.2,153.1,530.2,147.9"/>
<polygon class="st0" points="557.4,140.5 551.7,140.5 551.7,137.6 566.2,137.6 566.2,140.5 560.6,140.5 560.6,155.5 557.4,155.5 "/>
<path class="st0" d="M430.5,165.1h-7v17.9h3.1v-5.7h3.6c3.9,0,7.1-2.1,7.1-6.1C437.3,167.5,434.6,165.1,430.5,165.1 M430.2,174.3
	h-3.6v-6.4h3.6c2.4,0,3.9,1.1,3.9,3.2C434.1,173,432.6,174.3,430.2,174.3"/>
<path class="st0" d="M452.3,164.7c-5.5,0-9.4,4.2-9.4,9.3c0,5,3.8,9.2,9.3,9.2c5.5,0,9.4-4.2,9.4-9.3
	C461.6,168.9,457.8,164.7,452.3,164.7 M452.3,180.3c-3.5,0-6.1-2.9-6.1-6.4c0-3.5,2.5-6.3,6-6.3c3.5,0,6.1,2.9,6.1,6.4
	C458.4,177.5,455.9,180.3,452.3,180.3"/>
<polygon class="st0" points="468.7,165.1 471.8,165.1 471.8,180.1 481.2,180.1 481.2,182.9 468.7,182.9 "/>
<polygon class="st0" points="489.7,175.9 482.6,165.1 486.3,165.1 491.3,173 496.4,165.1 500,165.1 492.9,175.8 492.9,182.9 
	489.7,182.9 "/>
<polygon class="st0" points="510.5,168 504.9,168 504.9,165.1 519.4,165.1 519.4,168 513.7,168 513.7,182.9 510.5,182.9 "/>
<polygon class="st0" points="526.3,165.1 539.5,165.1 539.5,167.9 529.4,167.9 529.4,172.5 538.4,172.5 538.4,175.3 529.4,175.3 
	529.4,180.1 539.6,180.1 539.6,182.9 526.3,182.9 "/>
<path class="st0" d="M560.8,178c-1.5,1.4-2.9,2.3-5.1,2.3c-3.4,0-5.9-2.9-5.9-6.4c0-3.5,2.5-6.3,5.9-6.3c2,0,3.6,0.9,5,2.2l2-2.3
	c-1.7-1.6-3.7-2.8-7-2.8c-5.4,0-9.2,4.2-9.2,9.3c0,5.1,3.9,9.2,9.1,9.2c3.3,0,5.4-1.2,7.2-3.2L560.8,178z"/>
<polygon class="st0" points="569.7,165.1 572.8,165.1 572.8,172.5 581.3,172.5 581.3,165.1 584.5,165.1 584.5,182.9 581.3,182.9 
	581.3,175.4 572.8,175.4 572.8,182.9 569.7,182.9 "/>
<polygon class="st0" points="593.5,165.1 596.4,165.1 605.9,177.4 605.9,165.1 609,165.1 609,182.9 606.4,182.9 596.5,170.2 
	596.5,182.9 593.5,182.9 "/>
<rect x="618" y="165.1" class="st0" width="3.1" height="17.9"/>
<path class="st0" d="M645.1,179.5c1.2-1.6,1.8-3.5,1.8-5.5c0-5-3.8-9.2-9.3-9.2c-5.5,0-9.4,4.2-9.4,9.3s3.8,9.2,9.3,9.2
	c2.1,0,3.9-0.6,5.4-1.7l2.1,1.9l2-2.2L645.1,179.5z M642.7,177.4l-3.1-2.8l-2,2.3l3.1,2.6c-0.8,0.5-1.9,0.9-3.1,0.9
	c-3.6,0-6.1-2.9-6.1-6.4c0-3.5,2.5-6.3,6-6.3c3.5,0,6.1,2.9,6.1,6.4C643.6,175.3,643.3,176.4,642.7,177.4"/>
<path class="st0" d="M654,175.3v-10.3h3.1v10.2c0,3.3,1.7,5.1,4.5,5.1c2.8,0,4.5-1.7,4.5-5v-10.3h3.1v10.1c0,5.3-3,8-7.7,8
	C657,183.2,654,180.5,654,175.3"/>
<polygon class="st0" points="677,165.1 690.3,165.1 690.3,167.9 680.2,167.9 680.2,172.5 689.2,172.5 689.2,175.3 680.2,175.3 
	680.2,180.1 690.4,180.1 690.4,182.9 677,182.9 "/>
<path class="st0" d="M430.3,192.5h-6.9v17.9h6.8c6.4,0,10.2-3.9,10.2-9C440.4,196.2,436.7,192.5,430.3,192.5 M430.4,206h-2v-9.1h2
	c3,0,4.9,1.7,4.9,4.5C435.3,204.3,433.4,206,430.4,206"/>
<polygon class="st0" points="448.6,192.5 463,192.5 463,196.7 453.5,196.7 453.5,199.4 462.1,199.4 462.1,203.3 453.5,203.3 
	453.5,206.2 463.1,206.2 463.1,210.4 448.6,210.4 "/>
<path class="st0" d="M491.9,192.5h-7.7v17.9h5v-5.1h2.4c4.4,0,7.7-2.2,7.7-6.5C499.3,194.8,496.4,192.5,491.9,192.5 M491.5,201.4
	h-2.3v-4.7h2.3c1.8,0,2.9,0.8,2.9,2.4C494.4,200.4,493.3,201.4,491.5,201.4"/>
<path class="st0" d="M511.1,192.4h4.8l7.6,18h-5.3l-1.3-3.2H510l-1.3,3.2h-5.2L511.1,192.4z M515.5,203.3l-2-5.1l-2,5.1H515.5z"/>
<path class="st0" d="M542.4,204.1c2.2-0.9,3.7-2.8,3.7-5.5c0-4-2.8-6.1-7.4-6.1h-8.5v17.9h5V205h2.2l3.6,5.4h5.7L542.4,204.1z
	 M538.4,201.1h-3.3v-4.3h3.2c1.7,0,2.7,0.7,2.7,2.1C541.1,200.2,540.1,201.1,538.4,201.1"/>
<rect x="554.9" y="192.5" class="st0" width="5" height="17.9"/>
<path class="st0" d="M576.4,199.2c-2.5-0.6-3.1-0.9-3.1-1.8c0-0.6,0.6-1.2,1.8-1.2c1.6,0,3.4,0.6,5,1.8l2.5-3.5
	c-1.9-1.6-4.3-2.4-7.4-2.4c-4.3,0-6.9,2.4-6.9,5.7c0,3.7,2.9,4.8,6.7,5.6c2.4,0.6,3,1,3,1.7c0,0.8-0.7,1.2-2,1.2
	c-2.1,0-4-0.7-5.8-2.1l-2.8,3.3c2.2,2,5.2,3,8.4,3c4.3,0,7.2-2.2,7.2-5.8C583,201.5,580.5,200.1,576.4,199.2"/>
</svg>
